<?xml version="1.0" encoding="UTF-8"?>
<svg width="23px" height="16px" viewBox="0 0 23 16" version="1.1" xmlns="http://www.w3.org/2000/svg" xmlns:xlink="http://www.w3.org/1999/xlink">
    <title>Shape</title>
    <g id="Symbols" stroke="none" stroke-width="1" fill="none" fill-rule="evenodd">
        <g id="header" transform="translate(-1261.000000, -8.000000)" fill="#FFFFFF" fill-rule="nonzero">
            <g id="Group-14">
                <path d="M1268.41037,21.3335069 L1268.41142,21.3335069 C1268.4123,21.3335069 1268.41317,21.3333333 1268.41405,21.3333333 L1280.63089,21.3333333 C1280.93166,21.3333333 1281.1961,21.1359375 1281.27875,20.8498264 L1283.97407,11.5164931 C1284.03215,11.3152778 1283.99144,11.0989583 1283.86422,10.9319444 C1283.73682,10.7649306 1283.53766,10.6666667 1283.32621,10.6666667 L1266.85635,10.6666667 L1266.37467,8.52204862 C1266.30605,8.21701387 1266.03266,8 1265.7168,8 L1261.67383,8 C1261.30164,8 1261,8.29843751 1261,8.66666667 C1261,9.03489582 1261.30164,9.33333333 1261.67383,9.33333333 L1265.17634,9.33333333 C1265.26162,9.71336804 1267.4814,19.5963542 1267.60914,20.1649306 C1266.89302,20.4729167 1266.39063,21.1793403 1266.39063,22 C1266.39063,23.1027778 1267.2975,24 1268.41212,24 L1280.63089,24 C1281.00308,24 1281.30472,23.7015625 1281.30472,23.3333333 C1281.30472,22.9651042 1281.00308,22.6666667 1280.63089,22.6666667 L1268.41212,22.6666667 C1268.04064,22.6666667 1267.73829,22.3675347 1267.73829,22 C1267.73829,21.6329861 1268.03959,21.334375 1268.41037,21.3335069 L1268.41037,21.3335069 Z M1283,12 L1280.58036,20 L1268.8819,20 L1267,12 L1283,12 Z" id="Shape"></path>
            </g>
        </g>
    </g>
</svg>