<?xml version="1.0" encoding="UTF-8"?>
<svg width="49px" height="57px" viewBox="0 0 49 57" version="1.1" xmlns="http://www.w3.org/2000/svg" xmlns:xlink="http://www.w3.org/1999/xlink">
    <title>shield</title>
    <g id="Page-1" stroke="none" stroke-width="1" fill="none" fill-rule="evenodd">
        <g id="Home" transform="translate(-650.000000, -672.000000)" fill="#000000" fill-rule="nonzero">
            <g id="Преимущества" transform="translate(138.000000, 661.000000)">
                <g id="Гарантия" transform="translate(400.000000, 0.000000)">
                    <g id="Group-5" transform="translate(20.000000, 11.000000)">
                        <g id="shield" transform="translate(92.000000, 0.000000)">
                            <path d="M48.914764,15.4655562 L48.913009,15.421199 C48.8879999,14.8736917 48.8713271,14.2944388 48.8612358,13.6499545 C48.8142888,10.5071153 46.2936319,7.90743466 43.1222988,7.7317453 C36.5102362,7.36601563 31.3952113,5.22904161 27.0247562,1.00684357 L26.987462,0.971618644 C25.5619416,-0.323872881 23.4115954,-0.323872881 21.9856362,0.971618644 L21.9483419,1.00684357 C17.577887,5.22904161 12.462862,7.36601563 5.85079943,7.73218015 C2.67990514,7.90743466 0.158809402,10.5071153 0.111862525,13.6503894 C0.102209823,14.2905248 0.0850982856,14.8697779 0.0600891849,15.421199 L0.0574567012,15.5242642 C-0.0710989675,22.2069831 -0.230806498,30.5239611 2.57635857,38.0729502 C4.1199045,42.2242637 6.4575999,45.8328536 9.52407006,48.7991337 C13.0165729,52.1772401 17.5910497,54.859112 23.1202609,56.7699513 C23.3001511,56.8321384 23.4870615,56.8825838 23.6774818,56.9204179 C23.9460009,56.9734727 24.216275,57 24.4865491,57 C24.7568232,57 25.027536,56.9734727 25.2956163,56.9204179 C25.4860368,56.8825838 25.6742633,56.8317035 25.8550311,56.7690815 C31.377661,54.8547633 35.9473114,52.1715866 39.436743,48.7939151 C42.5018969,45.8267654 44.8395923,42.2173057 46.3844545,38.0651225 C49.2021496,30.4935198 49.0428809,22.1608865 48.914764,15.4655562 Z M43.2183866,36.9079211 C40.2576566,44.8643878 34.2137839,50.3285879 24.7414668,53.6118915 C24.7076824,53.6231983 24.6717044,53.6332003 24.63441,53.6405933 C24.5365674,53.6597278 24.4369696,53.6597278 24.3378107,53.6401583 C24.300955,53.6327655 24.264977,53.6231983 24.2316315,53.6118915 C14.7492229,50.3346761 8.70140132,44.8735202 5.74286524,36.9166184 C3.15551734,29.9581891 3.30206211,22.3235295 3.43149524,15.5881908 L3.43237281,15.5507917 C3.45869821,14.9719735 3.47624847,14.3657581 3.48590106,13.6995303 C3.50696138,12.3040174 4.62842336,11.1494253 6.039026,11.0715827 C9.78074267,10.8645823 13.0679074,10.1479089 16.0883082,8.88068409 C19.1047601,7.61519889 21.7838082,5.83134298 24.2777009,3.42735587 C24.4045017,3.32124645 24.5690353,3.32081161 24.6953972,3.42735587 C27.1897287,5.83134298 29.8687769,7.61519889 32.8847901,8.88068409 C35.9051907,10.1479089 39.1923556,10.8645823 42.934511,11.0715827 C44.3451136,11.1494253 45.4665755,12.3040174 45.4871971,13.6999651 C45.4972885,14.3696721 45.5148388,14.9758873 45.5411642,15.5507917 C45.6701586,22.2939581 45.8131933,29.9347059 43.2183866,36.9079211 Z" id="Shape"></path>
                            <path d="M24.084507,14.4507042 C16.1161591,14.4507042 9.63380282,20.9334038 9.63380282,28.9011872 C9.63380282,36.8694133 16.1161591,43.3521127 24.084507,43.3521127 C32.0524125,43.3521127 38.5352113,36.8694133 38.5352113,28.9011872 C38.5352113,20.9334038 32.0524125,14.4507042 24.084507,14.4507042 Z M24.084507,39.9492927 C17.9923396,39.9492927 13.0362324,34.9932614 13.0362324,28.9011872 C13.0362324,22.8091132 17.9923396,17.8530819 24.084507,17.8530819 C30.176232,17.8530819 35.1323392,22.8091132 35.1323392,28.9011872 C35.1323392,34.9932614 30.176232,39.9492927 24.084507,39.9492927 Z" id="Shape"></path>
                            <path d="M28.5462457,23.7769225 L22.1591717,30.4424061 L20.4255853,28.6332537 C19.7932769,27.973383 18.7681961,27.973383 18.1358875,28.6332537 C17.5039999,29.2931242 17.5039999,30.3628878 18.1358875,31.022319 L21.0145332,34.0264435 C21.3306875,34.3563789 21.7449296,34.5211268 22.1591717,34.5211268 C22.5734137,34.5211268 22.9876558,34.3563789 23.3038101,34.0264435 L30.8359434,26.1659879 C31.4678311,25.5061173 31.4678311,24.4363537 30.8359434,23.7769225 C30.2036349,23.1166127 29.1785542,23.1166127 28.5462457,23.7769225 Z" id="Path"></path>
                        </g>
                    </g>
                </g>
            </g>
        </g>
    </g>
</svg>