<?xml version="1.0" encoding="UTF-8"?>
<svg width="80px" height="57px" viewBox="0 0 80 57" version="1.1" xmlns="http://www.w3.org/2000/svg" xmlns:xlink="http://www.w3.org/1999/xlink">
    <title>truck</title>
    <g id="Page-1" stroke="none" stroke-width="1" fill="none" fill-rule="evenodd">
        <g id="Home" transform="translate(-236.000000, -673.000000)" fill="#000000" fill-rule="nonzero">
            <g id="Преимущества" transform="translate(138.000000, 661.000000)">
                <g id="Доставка">
                    <g id="truck" transform="translate(98.000000, 12.000000)">
                        <path d="M18,44 C15.7909375,44 14,45.7909375 14,48 C14,50.2090625 15.7907813,52 18,52 C20.2092188,52 22,50.2092187 22,48 C21.9975,45.791875 20.208125,44.0023437 18,44 Z M18,49.3332812 C17.2635938,49.3332812 16.6667188,48.7364062 16.6667188,48 C16.6667188,47.2635937 17.2635938,46.6667187 18,46.6667187 C18.7364063,46.6667187 19.3332813,47.2635937 19.3332813,48 C19.3325,48.7360937 18.7360938,49.3325 18,49.3332812 Z" id="Shape"></path>
                        <path d="M61,44 C58.7909375,44 57,45.7909375 57,48 C57,50.2090625 58.7909375,52 61,52 C63.2090625,52 65,50.2092187 65,48 C64.9976562,45.791875 63.208125,44.0023437 61,44 Z M61,49.3332812 C60.2635937,49.3332812 59.6667188,48.7364062 59.6667188,48 C59.6667188,47.2635937 60.26375,46.6667187 61,46.6667187 C61.7364063,46.6667187 62.3332812,47.2635937 62.3332812,48 C62.3326562,48.7360937 61.7360938,49.3325 61,49.3332812 Z" id="Shape"></path>
                        <path d="M78.98375,24.1104238 L69.7989063,13.5819934 C69.0379688,12.7098194 67.9460938,12.211866 66.8001563,12.2142516 L54.6667188,12.2142516 L54.6667188,4.07141721 C54.664375,1.82386768 52.8748438,0.00238559602 50.6667188,0 L4,0 C1.79187513,0.00238559602 0.00234388021,1.82386768 0,4.07141721 L0,39.3570861 C0,39.716993 0.14031263,40.0622682 0.39046888,40.3168909 C0.640468879,40.5713544 0.979687629,40.7143312 1.33343763,40.7143312 L2.66671888,40.7143312 L2.66671888,44.7857484 C2.66906263,47.0332979 4.45859387,48.85478 6.66671887,48.8571656 L9.43984386,48.8571656 C10.0970314,53.529753 14.0292189,57 18.6667188,57 C23.3042188,57 27.2364063,53.529753 27.8935938,48.8571656 L52.1067188,48.8571656 C52.7639063,53.529753 56.6960938,57 61.3335938,57 C65.9710938,57 69.9032813,53.529753 70.5604688,48.8571656 L76,48.8571656 C78.208125,48.85478 79.9976563,47.0332979 80,44.7857484 L80,26.816803 C79.9990625,25.8181925 79.6373438,24.8550478 78.98375,24.1104238 Z M2.4,37.7323944 L2.4,3.76701493 C2.40078547,3.01696266 3.00041617,2.40908756 3.74048959,2.4084507 L50.6595104,2.4084507 C51.3995838,2.40924677 51.9993716,3.01696266 52,3.76701493 L52,37.7323944 L2.4,37.7323944 Z M9.13898647,46.5633803 L6.20879615,46.5633803 C5.43101124,46.5625571 4.8006604,45.9341194 4.8,45.1584919 L4.8,40.943662 L12,40.943662 C10.452355,42.4521101 9.4467324,44.4273177 9.13898647,46.5633803 Z M18.8,54.5915493 C15.0445168,54.5915493 12,51.5362765 12,47.7675257 C12,43.9987748 15.0445168,40.943662 18.8,40.943662 C22.5554832,40.943662 25.6,43.9989347 25.6,47.7676856 C25.5955375,51.5345172 22.5535707,54.587231 18.8,54.5915493 Z M32,46.5633803 L27.6608484,46.5633803 C27.3531025,44.4273177 26.347645,42.4519454 24.8,40.943662 L32,40.943662 L32,46.5633803 Z M44,46.5633803 L34.4,46.5633803 L34.4,40.943662 L44,40.943662 L44,46.5633803 Z M51.7414648,46.5633803 L46.4,46.5633803 L46.4,40.943662 L54.4,40.943662 C52.9618012,42.4521101 52.0274476,44.4273177 51.7414648,46.5633803 Z M61.2,54.5915493 C57.4445168,54.5915493 54.4,51.5363123 54.4,47.7676056 C54.4,43.9988989 57.4443575,40.943662 61.2,40.943662 C64.9554832,40.943662 68,43.9988989 68,47.7676056 C67.9955375,51.534553 64.95373,54.5872311 61.2,54.5915493 Z M76.8,45.2021306 C76.7992279,45.9536655 76.2098396,46.5627422 75.4824074,46.5633803 L70.1065742,46.5633803 C69.4495537,41.8807644 65.5682685,38.4040182 60.9882716,38.3955632 L54.4,38.3955632 L54.4,15.2535211 L59.6706791,15.2535211 L59.6706791,28.8664964 C59.6729952,31.1209416 61.4414691,32.9480121 63.6236112,32.950405 L76.8,32.950405 L76.8,45.2021306 Z M77.5998466,29.7042254 L64.5090351,29.7042254 C63.7863275,29.7034128 63.2006136,29.0831392 63.2,28.317588 L63.2,14.4507042 L67.2582697,14.4507042 C67.6341206,14.4484519 67.9927898,14.6171299 68.243306,14.9138602 L77.2643421,25.6756156 C77.4791141,25.9291202 77.5984659,26.2572136 77.6,26.5978197 L77.6,29.7042254 L77.5998466,29.7042254 Z" id="Shape"></path>
                    </g>
                </g>
            </g>
        </g>
    </g>
</svg>