<svg width="254" height="255" viewBox="0 0 254 255" fill="none" xmlns="http://www.w3.org/2000/svg">
<path fill-rule="evenodd" clip-rule="evenodd" d="M243.682 158.048C243.724 158.066 243.763 158.084 243.8 158.1C245.739 158.893 247.522 158.677 248.602 158.546C248.748 158.528 248.881 158.512 249 158.5C247.2 161.75 245.4 165.025 243.6 168.3C241.8 171.575 240 174.85 238.2 178.1C237.2 179 235.7 180.1 233.5 180.6C232.84 180.765 232.35 180.811 231.931 180.85C231.337 180.906 230.887 180.948 230.3 181.3C228.6 182.3 227.6 185 228.1 187.2C228.8 190 231.8 192.1 235.5 191.9L219.1 208.3C218.2 208.6 216.8 208.9 215.3 208.9C214.574 208.9 214.038 208.842 213.581 208.792C212.84 208.711 212.304 208.653 211.5 208.9C211.484 208.905 211.463 208.912 211.438 208.92C211.005 209.058 209.345 209.588 208.4 211.1C207.2 213.1 208 215.3 208.2 215.8C209.4 219.1 212.9 220.1 213.3 220.2C206.8 223.7 200.2 227.2 193.6 230.7C192.5 231.1 190.9 231.6 189.3 231.1C188.481 230.859 188.01 230.502 187.563 230.163C187.083 229.799 186.629 229.456 185.8 229.3C184.1 229 182.1 229.6 180.9 231.2C179.3 233.4 180.2 236 180.5 236.7C181.344 239.138 183.419 240.345 184.087 240.733C184.131 240.759 184.169 240.781 184.2 240.8C180.1 241.65 176.025 242.475 171.95 243.3C167.875 244.125 163.8 244.95 159.7 245.8C158.904 245.243 158.298 244.749 157.832 244.369C157.712 244.271 157.602 244.182 157.5 244.1C157.069 243.765 156.798 243.521 156.556 243.303C156.294 243.066 156.065 242.86 155.7 242.6C155.585 242.523 155.465 242.439 155.342 242.351C154.823 241.984 154.227 241.561 153.5 241.4C152 240.9 150.1 241.5 148.9 242.6C146.7 244.6 147.3 247.7 147.5 248.6C147.9 250.4 148.8 251.8 149.4 252.4C145.55 252.15 141.575 251.85 137.6 251.55C133.625 251.25 129.65 250.95 125.8 250.7C125.439 250.483 125.234 250.214 124.846 249.703C124.697 249.508 124.522 249.277 124.3 249C123.76 248.214 123.63 247.549 123.507 246.922C123.38 246.272 123.26 245.662 122.7 245C121.4 243.5 118.6 242.8 116.3 243.9C114.2 244.9 113.4 247 113.3 247.4C113.35 248.55 113.425 249.675 113.5 250.8C113.575 251.925 113.65 253.05 113.7 254.2L94.2002 246.7C92.9002 246.3 91.3002 245.6 90.5002 244C90.1502 243.25 90.1502 242.65 90.1502 242.025C90.1502 241.4 90.1502 240.75 89.8002 239.9C89.2002 238.5 87.7002 237.2 86.0002 236.8C83.5002 236.3 81.2002 237.9 80.0002 239.6C78.5002 241.9 78.9002 244.4 79.0002 244.9C73.4002 240.9 67.7002 236.8 62.1002 232.7C60.1002 231 59.4002 229.5 59.3002 228.4C59.2079 227.524 59.3923 226.881 59.5686 226.267C59.7746 225.549 59.9696 224.87 59.7002 223.9C59.3002 222.4 58.1002 221 56.5002 220.5C53.7002 219.6 51.1002 222.1 50.5002 222.7C48.9002 224.3 48.3002 226.1 48.1002 227C45.3087 223.231 42.4685 219.512 39.6135 215.772C38.3776 214.154 37.1389 212.531 35.9002 210.9C34.3002 209.2 34.0002 207.8 34.0002 206.8C34.0002 205.803 34.3479 205.154 34.7215 204.457C35.0975 203.755 35.4999 203.004 35.6002 201.8C35.6002 201.768 35.6015 201.724 35.603 201.67C35.6213 201.039 35.6809 198.973 34.3002 197.5C32.7002 195.6 29.7002 195.5 27.7002 196.3C24.8002 197.4 23.7002 200.3 23.6002 200.7C22.2502 197.4 20.9252 194.075 19.6002 190.75C18.2752 187.425 16.9502 184.1 15.6002 180.8C15.4002 180 15.1002 178.7 15.5002 177.3C15.8498 176.102 16.4736 175.427 17.0854 174.765C17.6987 174.102 18.2998 173.451 18.6002 172.3C19.0002 170.7 18.6002 168.6 17.3002 167.3C15.5494 165.549 12.9472 165.88 12.0701 165.991C12.0454 165.994 12.0221 165.997 12.0002 166C9.02551 166.384 7.33992 168.517 6.85508 169.131C6.83466 169.157 6.81636 169.18 6.8002 169.2C6.60019 165.45 6.3752 161.7 6.1502 157.95C5.9252 154.2 5.7002 150.45 5.5002 146.7C6.0002 144.7 6.9002 143.4 7.6002 142.6C8.14256 142.016 8.65012 141.676 9.10834 141.368C9.74843 140.939 10.2922 140.574 10.7002 139.7C11.3309 138.258 10.9874 136.735 10.8401 136.082C10.8239 136.011 10.8101 135.949 10.8002 135.9C10.7002 135.5 9.9002 133.1 7.7002 132.2C6.7002 131.8 5.8002 131.8 4.7002 131.9C2.9002 132 1.5002 132.5 0.700195 132.9C2.3002 125.5 3.8002 118.2 5.3002 110.8C5.8002 109.8 6.6002 108.6 8.0002 107.8C8.68981 107.455 9.20958 107.377 9.70292 107.303C10.2111 107.227 10.6913 107.155 11.3002 106.8C12.9002 105.8 14.1002 103.5 13.6002 101.3C13.0247 98.8061 10.701 97.7843 9.71811 97.352C9.6763 97.3336 9.63692 97.3163 9.60019 97.3C7.4002 96.4 5.4002 96.8 4.6002 97C6.4002 93.75 8.20021 90.475 10.0002 87.2C11.8002 83.925 13.6002 80.65 15.4002 77.4C16.4002 76.5 17.9002 75.4 20.1002 74.9C20.7607 74.7349 21.2508 74.689 21.669 74.6499C22.2638 74.5943 22.713 74.5523 23.3002 74.2C25.0002 73.2 26.0002 70.5 25.5002 68.3C24.8002 65.5 21.8002 63.4 18.1002 63.6L34.5002 47.2C35.4002 46.9 36.8002 46.6 38.3002 46.6C39.0259 46.6 39.562 46.6584 40.0199 46.7082C40.7607 46.7889 41.2968 46.8472 42.1002 46.6C42.1166 46.5945 42.1375 46.5879 42.1626 46.5799C42.5949 46.442 44.2549 45.9124 45.2002 44.4C46.4002 42.4 45.6002 40.2 45.4002 39.7C44.2002 36.4 40.7002 35.4 40.3002 35.3C46.7997 31.8003 53.3992 28.3005 59.9987 24.8008L60.0002 24.8C61.1002 24.4 62.7002 23.9 64.3002 24.4C65.1191 24.6409 65.59 24.9978 66.0369 25.3365C66.5178 25.701 66.971 26.0445 67.8002 26.2C69.5002 26.5 71.5002 25.9 72.7002 24.3C74.1741 22.2734 73.4417 19.9073 73.1607 18.9998C73.1367 18.9221 73.116 18.8552 73.1002 18.8C72.2562 16.3619 70.1812 15.1549 69.5138 14.7666C69.4694 14.7409 69.4313 14.7187 69.4002 14.7C73.5002 13.85 77.5752 13.025 81.6502 12.2C85.7252 11.375 89.8002 10.55 93.9002 9.70001C94.6964 10.2574 95.3025 10.7513 95.7688 11.1314C95.8881 11.2287 95.9983 11.3185 96.1002 11.4C96.5315 11.7355 96.8021 11.9791 97.044 12.1969C97.3068 12.4335 97.5357 12.6397 97.9002 12.9C97.9827 12.955 98.0689 13.0138 98.1584 13.0747C98.7201 13.4574 99.4102 13.9275 100.1 14.1C101.6 14.6 103.5 14 104.7 12.9C106.8 10.9 106.2 7.80001 106 6.90001C105.6 5.10001 104.7 3.80001 104.1 3.10001L105.175 3.16232C111.727 3.54181 118.358 3.92597 124.9 4.40001C125.041 4.43855 125.201 4.47874 125.374 4.52227C126.546 4.81763 128.329 5.26701 129.2 6.40001C129.74 7.18561 129.871 7.85066 129.993 8.47803C130.121 9.12842 130.24 9.73831 130.8 10.4C132.1 11.9 134.9 12.6 137.2 11.5C139.3 10.5 140.1 8.40001 140.2 8.00001C140.1 5.70001 140 3.50001 139.8 1.20001L159.3 8.70001C160.6 9.10001 162.2 9.80001 163 11.4C163.339 12.125 163.326 12.7099 163.314 13.3127C163.301 13.957 163.287 14.6217 163.7 15.5C164.3 16.9 165.8 18.2 167.5 18.6C170 19.1 172.3 17.5 173.5 15.8C175 13.5 174.6 11 174.5 10.5C180.1 14.5 185.8 18.6 191.4 22.7C193.4 24.4 194.1 25.9 194.2 27C194.292 27.8764 194.108 28.5188 193.932 29.1332C193.726 29.8508 193.531 30.5303 193.8 31.5C194.2 33 195.4 34.4 197 34.9C199.8 35.8 202.4 33.3 203 32.7C204.6 31.1 205.2 29.3 205.4 28.4C208.192 32.1686 211.032 35.8884 213.887 39.6276C215.123 41.2463 216.362 42.8686 217.6 44.5C219.2 46.2 219.5 47.6 219.5 48.6C219.5 49.5967 219.153 50.2457 218.779 50.9431C218.403 51.645 218.001 52.396 217.9 53.6C217.9 53.6318 217.899 53.6757 217.897 53.7302C217.879 54.3615 217.82 56.4273 219.2 57.9C220.9 59.8 223.8 59.9 225.8 59.1C228.7 58 229.8 55.1 229.9 54.7C231.25 58 232.575 61.325 233.9 64.65C235.225 67.975 236.55 71.3 237.9 74.6C237.909 74.6381 237.917 74.6767 237.926 74.7158C238.124 75.6018 238.383 76.7592 238 78.1C237.651 79.2985 237.027 79.9733 236.415 80.6351C235.802 81.2984 235.201 81.9486 234.9 83.1C234.5 84.7 234.9 86.8 236.2 88.1C237.951 89.8507 240.553 89.5203 241.43 89.4088L241.5 89.4C244.475 89.0162 246.16 86.8828 246.645 86.2692C246.666 86.2434 246.684 86.2202 246.7 86.2C246.9 89.95 247.125 93.7 247.35 97.45C247.575 101.2 247.8 104.95 248 108.7C247.5 110.7 246.6 112 245.9 112.8C245.337 113.45 244.812 113.818 244.34 114.148C243.723 114.581 243.197 114.95 242.8 115.8C242.169 117.242 242.513 118.765 242.66 119.418C242.676 119.489 242.69 119.551 242.7 119.6C242.8 120 243.6 122.4 245.8 123.3C246.7 123.7 247.6 123.7 248.7 123.6C250.5 123.5 251.9 123 252.7 122.6C251.1 130 249.6 137.3 248.1 144.7C247.6 145.6 246.8 146.8 245.4 147.6C244.711 147.945 244.191 148.023 243.697 148.097C243.189 148.173 242.709 148.245 242.1 148.6C240.5 149.6 239.3 151.9 239.8 154.1C240.376 156.594 242.699 157.616 243.682 158.048ZM107 128C107 138.4 115.4 146.8 125.8 146.8C136.2 146.8 144.6 138.4 144.6 128C144.6 117.6 136.2 109.2 125.8 109.2C115.4 109.2 107 117.6 107 128Z" fill="#060607"/>
<path d="M243.8 158.1L243.597 158.557C243.602 158.559 243.606 158.561 243.611 158.563L243.8 158.1ZM243.682 158.048L243.884 157.59L243.884 157.59L243.682 158.048ZM248.602 158.546L248.542 158.049L248.542 158.049L248.602 158.546ZM249 158.5L249.438 158.742C249.528 158.58 249.52 158.38 249.418 158.225C249.316 158.07 249.136 157.984 248.95 158.002L249 158.5ZM243.6 168.3L243.162 168.059L243.162 168.059L243.6 168.3ZM238.2 178.1L238.535 178.472C238.576 178.435 238.611 178.391 238.638 178.342L238.2 178.1ZM233.5 180.6L233.389 180.112L233.379 180.115L233.5 180.6ZM231.931 180.85L231.978 181.348L231.978 181.348L231.931 180.85ZM230.3 181.3L230.554 181.731L230.557 181.729L230.3 181.3ZM228.1 187.2L227.613 187.311L227.615 187.321L228.1 187.2ZM235.5 191.9L235.854 192.254C236 192.107 236.041 191.885 235.957 191.696C235.872 191.507 235.68 191.39 235.473 191.401L235.5 191.9ZM219.1 208.3L219.258 208.774C219.332 208.75 219.399 208.708 219.454 208.654L219.1 208.3ZM213.581 208.792L213.635 208.295L213.635 208.295L213.581 208.792ZM211.5 208.9L211.353 208.422L211.342 208.426L211.5 208.9ZM211.438 208.92L211.59 209.397L211.59 209.396L211.438 208.92ZM208.4 211.1L207.976 210.835L207.971 210.843L208.4 211.1ZM208.2 215.8L208.67 215.629C208.668 215.624 208.666 215.619 208.664 215.614L208.2 215.8ZM213.3 220.2L213.537 220.64C213.719 220.542 213.822 220.343 213.796 220.138C213.771 219.933 213.622 219.765 213.421 219.715L213.3 220.2ZM193.6 230.7L193.771 231.17C193.793 231.162 193.814 231.153 193.834 231.142L193.6 230.7ZM189.3 231.1L189.449 230.623L189.441 230.62L189.3 231.1ZM187.563 230.163L187.866 229.765L187.866 229.765L187.563 230.163ZM185.8 229.3L185.892 228.809L185.887 228.808L185.8 229.3ZM180.9 231.2L180.5 230.9L180.496 230.906L180.9 231.2ZM180.5 236.7L180.973 236.536C180.969 236.525 180.964 236.514 180.96 236.503L180.5 236.7ZM184.087 240.733L184.338 240.301L184.338 240.301L184.087 240.733ZM184.2 240.8L184.302 241.29C184.503 241.248 184.659 241.087 184.693 240.884C184.728 240.681 184.634 240.477 184.457 240.371L184.2 240.8ZM159.7 245.8L159.413 246.21C159.526 246.289 159.667 246.318 159.802 246.29L159.7 245.8ZM157.832 244.369L157.516 244.756L157.516 244.756L157.832 244.369ZM157.5 244.1L157.813 243.71L157.807 243.705L157.5 244.1ZM156.556 243.303L156.891 242.932L156.891 242.932L156.556 243.303ZM155.7 242.6L155.991 242.193C155.986 242.19 155.982 242.187 155.978 242.184L155.7 242.6ZM155.342 242.351L155.631 241.943L155.631 241.943L155.342 242.351ZM153.5 241.4L153.342 241.874C153.358 241.88 153.375 241.884 153.392 241.888L153.5 241.4ZM148.9 242.6L149.237 242.97L149.238 242.969L148.9 242.6ZM147.5 248.6L147.988 248.492L147.988 248.492L147.5 248.6ZM149.4 252.4L149.368 252.899C149.576 252.912 149.77 252.796 149.856 252.606C149.942 252.417 149.901 252.194 149.754 252.046L149.4 252.4ZM137.6 251.55L137.638 251.051L137.638 251.051L137.6 251.55ZM125.8 250.7L125.543 251.129C125.611 251.17 125.688 251.194 125.768 251.199L125.8 250.7ZM124.846 249.703L125.244 249.4L125.244 249.4L124.846 249.703ZM124.3 249L123.888 249.283C123.895 249.293 123.902 249.303 123.91 249.312L124.3 249ZM123.507 246.922L123.998 246.826L123.998 246.826L123.507 246.922ZM122.7 245L123.082 244.677L123.078 244.673L122.7 245ZM116.3 243.9L116.515 244.351L116.516 244.351L116.3 243.9ZM113.3 247.4L112.815 247.279C112.803 247.325 112.799 247.374 112.801 247.422L113.3 247.4ZM113.5 250.8L113.999 250.767L113.999 250.767L113.5 250.8ZM113.7 254.2L113.521 254.667C113.678 254.727 113.855 254.704 113.992 254.606C114.129 254.507 114.207 254.347 114.2 254.178L113.7 254.2ZM94.2002 246.7L94.3797 246.233C94.369 246.229 94.3582 246.225 94.3472 246.222L94.2002 246.7ZM90.5002 244L90.0469 244.212L90.053 244.224L90.5002 244ZM90.1502 242.025L89.6502 242.025L89.6502 242.025L90.1502 242.025ZM89.8002 239.9L90.2626 239.71L90.2598 239.703L89.8002 239.9ZM86.0002 236.8L86.1147 236.313C86.1093 236.312 86.1038 236.311 86.0983 236.31L86.0002 236.8ZM80.0002 239.6L79.5917 239.312C79.5882 239.317 79.5847 239.322 79.5814 239.327L80.0002 239.6ZM79.0002 244.9L78.7096 245.307C78.8765 245.426 79.0994 245.431 79.2717 245.32C79.444 245.208 79.5307 245.003 79.4905 244.802L79.0002 244.9ZM62.1002 232.7L61.7764 233.081C61.7856 233.089 61.7951 233.096 61.8048 233.103L62.1002 232.7ZM59.3002 228.4L59.7982 228.355L59.7974 228.348L59.3002 228.4ZM59.5686 226.267L59.088 226.129L59.088 226.129L59.5686 226.267ZM59.7002 223.9L59.2171 224.029L59.2184 224.034L59.7002 223.9ZM56.5002 220.5L56.3472 220.976L56.3511 220.977L56.5002 220.5ZM50.5002 222.7L50.8537 223.054L50.8538 223.054L50.5002 222.7ZM48.1002 227L47.6984 227.298C47.815 227.455 48.0126 227.53 48.2042 227.489C48.3957 227.448 48.5458 227.3 48.5883 227.108L48.1002 227ZM39.6135 215.772L39.2161 216.076L39.2161 216.076L39.6135 215.772ZM35.9002 210.9L36.2984 210.598C36.2878 210.584 36.2764 210.57 36.2643 210.557L35.9002 210.9ZM34.7215 204.457L35.1622 204.693L35.1622 204.693L34.7215 204.457ZM35.6002 201.8L36.0985 201.842C36.0996 201.828 36.1002 201.814 36.1002 201.8H35.6002ZM35.603 201.67L36.1028 201.684L36.1028 201.684L35.603 201.67ZM34.3002 197.5L33.9177 197.822C33.9235 197.829 33.9294 197.836 33.9354 197.842L34.3002 197.5ZM27.7002 196.3L27.8776 196.768L27.8859 196.764L27.7002 196.3ZM23.6002 200.7L23.1374 200.889C23.2193 201.089 23.4204 201.214 23.636 201.199C23.8516 201.183 24.0328 201.031 24.0853 200.821L23.6002 200.7ZM15.6002 180.8L15.1151 180.921C15.1209 180.944 15.1284 180.967 15.1374 180.989L15.6002 180.8ZM15.5002 177.3L15.0202 177.16L15.0194 177.163L15.5002 177.3ZM17.0854 174.765L16.7183 174.426L16.7183 174.426L17.0854 174.765ZM18.6002 172.3L19.084 172.426L19.0853 172.421L18.6002 172.3ZM17.3002 167.3L17.6537 166.946L17.6537 166.946L17.3002 167.3ZM12.0701 165.991L12.1329 166.487L12.1331 166.487L12.0701 165.991ZM12.0002 166L11.9383 165.504L11.9362 165.504L12.0002 166ZM6.85508 169.131L7.24739 169.441L7.2474 169.441L6.85508 169.131ZM6.8002 169.2L6.3009 169.227C6.31195 169.434 6.44981 169.613 6.64736 169.676C6.8449 169.74 7.06109 169.674 7.19068 169.512L6.8002 169.2ZM5.5002 146.7L5.01512 146.579C5.00305 146.627 4.99825 146.677 5.00091 146.727L5.5002 146.7ZM7.6002 142.6L7.2338 142.26C7.23045 142.263 7.22715 142.267 7.22391 142.271L7.6002 142.6ZM9.10834 141.368L9.38684 141.783L9.38685 141.783L9.10834 141.368ZM10.7002 139.7L11.1534 139.912L11.1583 139.9L10.7002 139.7ZM10.8401 136.082L10.3523 136.192L10.3523 136.192L10.8401 136.082ZM10.8002 135.9L11.2905 135.802C11.2889 135.794 11.2872 135.786 11.2853 135.779L10.8002 135.9ZM7.7002 132.2L7.88952 131.737L7.88589 131.736L7.7002 132.2ZM4.7002 131.9L4.72793 132.399C4.73378 132.399 4.73963 132.398 4.74547 132.398L4.7002 131.9ZM0.700195 132.9L0.211488 132.794C0.170834 132.982 0.241654 133.177 0.393618 133.295C0.545583 133.413 0.751739 133.433 0.923799 133.347L0.700195 132.9ZM5.3002 110.8L4.85298 110.576C4.8333 110.616 4.8189 110.658 4.81016 110.701L5.3002 110.8ZM8.0002 107.8L7.77659 107.353C7.76832 107.357 7.76016 107.361 7.75213 107.366L8.0002 107.8ZM9.70292 107.303L9.77703 107.798L9.77704 107.798L9.70292 107.303ZM11.3002 106.8L11.5521 107.232C11.5565 107.229 11.5609 107.227 11.5652 107.224L11.3002 106.8ZM13.6002 101.3L14.0878 101.189L14.0874 101.188L13.6002 101.3ZM9.71811 97.352L9.51684 97.8097L9.51684 97.8097L9.71811 97.352ZM9.60019 97.3L9.80325 96.8431C9.7987 96.8411 9.79412 96.8391 9.78951 96.8372L9.60019 97.3ZM4.6002 97L4.1628 96.7578C4.06634 96.9319 4.0824 97.1467 4.20367 97.3046C4.32494 97.4625 4.52832 97.5334 4.72146 97.4851L4.6002 97ZM10.0002 87.2L9.56204 86.9591L9.56204 86.9591L10.0002 87.2ZM15.4002 77.4L15.0657 77.0284C15.0245 77.0655 14.9897 77.1092 14.9628 77.1578L15.4002 77.4ZM20.1002 74.9L20.211 75.3877L20.2215 75.3851L20.1002 74.9ZM21.669 74.6499L21.7156 75.1478L21.7156 75.1478L21.669 74.6499ZM23.3002 74.2L23.0467 73.769L23.0429 73.7713L23.3002 74.2ZM25.5002 68.3L25.9879 68.1892L25.9853 68.1787L25.5002 68.3ZM18.1002 63.6L17.7466 63.2465C17.6002 63.3929 17.5592 63.6146 17.6436 63.8038C17.728 63.9929 17.9203 64.1105 18.1272 64.0993L18.1002 63.6ZM34.5002 47.2L34.3421 46.7257C34.2684 46.7502 34.2015 46.7916 34.1466 46.8465L34.5002 47.2ZM40.0199 46.7082L40.074 46.2112L40.074 46.2112L40.0199 46.7082ZM42.1002 46.6L42.2473 47.078L42.2583 47.0744L42.1002 46.6ZM42.1626 46.5799L42.0106 46.1035L42.0106 46.1035L42.1626 46.5799ZM45.2002 44.4L45.6243 44.6651L45.6289 44.6573L45.2002 44.4ZM45.4002 39.7L44.9303 39.8709C44.9321 39.8759 44.934 39.8808 44.936 39.8857L45.4002 39.7ZM40.3002 35.3L40.0631 34.8598C39.8814 34.9577 39.7784 35.1572 39.8041 35.3621C39.8297 35.567 39.9786 35.735 40.1789 35.7851L40.3002 35.3ZM59.9987 24.8008L60.233 25.2425L60.2333 25.2423L59.9987 24.8008ZM60.0002 24.8L59.8293 24.3301C59.8075 24.3381 59.7862 24.3475 59.7656 24.3585L60.0002 24.8ZM64.3002 24.4L64.151 24.8773L64.1591 24.8797L64.3002 24.4ZM66.0369 25.3365L66.3389 24.9381L66.3389 24.9381L66.0369 25.3365ZM67.8002 26.2L67.708 26.6915L67.7133 26.6924L67.8002 26.2ZM72.7002 24.3L73.1002 24.6L73.1046 24.5941L72.7002 24.3ZM73.1607 18.9998L72.6831 19.1476L72.6831 19.1476L73.1607 18.9998ZM73.1002 18.8L73.581 18.6626C73.5784 18.6538 73.5757 18.6451 73.5727 18.6365L73.1002 18.8ZM69.5138 14.7666L69.2624 15.1988L69.2624 15.1988L69.5138 14.7666ZM69.4002 14.7L69.2987 14.2104C69.0971 14.2522 68.9417 14.4134 68.9072 14.6164C68.8728 14.8194 68.9664 15.0228 69.143 15.1288L69.4002 14.7ZM93.9002 9.70001L94.1869 9.2904C94.0741 9.21139 93.9336 9.18246 93.7987 9.21042L93.9002 9.70001ZM95.7688 11.1314L96.0847 10.7439L96.0847 10.7439L95.7688 11.1314ZM96.1002 11.4L95.7878 11.7905L95.7932 11.7947L96.1002 11.4ZM97.044 12.1969L97.3785 11.8253L97.3785 11.8253L97.044 12.1969ZM97.9002 12.9L97.6096 13.3069C97.6139 13.31 97.6184 13.3131 97.6228 13.316L97.9002 12.9ZM98.1584 13.0747L97.8769 13.488L97.8769 13.488L98.1584 13.0747ZM100.1 14.1L100.258 13.6257C100.246 13.6216 100.234 13.618 100.221 13.6149L100.1 14.1ZM104.7 12.9L105.038 13.2687L105.045 13.2621L104.7 12.9ZM106 6.90001L106.488 6.79155L106.488 6.79155L106 6.90001ZM104.1 3.10001L104.129 2.60085C103.929 2.58925 103.741 2.69836 103.652 2.87803C103.563 3.0577 103.59 3.27317 103.721 3.42541L104.1 3.10001ZM105.175 3.16232L105.147 3.66148L105.147 3.66148L105.175 3.16232ZM124.9 4.40001L125.032 3.91763C125.001 3.90912 124.969 3.90366 124.936 3.90132L124.9 4.40001ZM125.374 4.52227L125.496 4.03744L125.496 4.03744L125.374 4.52227ZM129.2 6.40001L129.612 6.11675C129.607 6.10941 129.602 6.10221 129.597 6.09516L129.2 6.40001ZM129.993 8.47803L129.503 8.57414L129.503 8.57415L129.993 8.47803ZM130.8 10.4L130.418 10.723L130.422 10.7275L130.8 10.4ZM137.2 11.5L136.985 11.0486L136.984 11.0489L137.2 11.5ZM140.2 8.00001L140.685 8.12129C140.697 8.07457 140.702 8.0264 140.7 7.97829L140.2 8.00001ZM139.8 1.20001L139.98 0.733339C139.819 0.671443 139.637 0.696831 139.5 0.800516C139.362 0.904201 139.287 1.07155 139.302 1.24333L139.8 1.20001ZM159.3 8.70001L159.121 9.16669C159.131 9.17079 159.142 9.17454 159.153 9.1779L159.3 8.70001ZM163 11.4L163.453 11.1885L163.447 11.1764L163 11.4ZM163.314 13.3127L163.814 13.323L163.814 13.323L163.314 13.3127ZM163.7 15.5L164.16 15.3031C164.157 15.2977 164.155 15.2924 164.153 15.2871L163.7 15.5ZM167.5 18.6L167.386 19.0867C167.391 19.088 167.397 19.0892 167.402 19.0903L167.5 18.6ZM173.5 15.8L173.909 16.0884C173.912 16.0833 173.916 16.0783 173.919 16.0731L173.5 15.8ZM174.5 10.5L174.791 10.0931C174.624 9.97389 174.401 9.96874 174.229 10.0801C174.056 10.1915 173.97 10.3969 174.01 10.5981L174.5 10.5ZM191.4 22.7L191.724 22.319C191.715 22.3112 191.705 22.3037 191.696 22.2966L191.4 22.7ZM194.2 27L193.702 27.0453L193.703 27.0524L194.2 27ZM193.932 29.1332L193.451 28.9953L193.451 28.9953L193.932 29.1332ZM193.8 31.5L194.283 31.3712L194.282 31.3662L193.8 31.5ZM197 34.9L197.153 34.424L197.149 34.4228L197 34.9ZM203 32.7L203.354 33.0536L203.354 33.0536L203 32.7ZM205.4 28.4L205.802 28.1024C205.685 27.9451 205.488 27.8702 205.296 27.9109C205.105 27.9516 204.955 28.1004 204.912 28.2915L205.4 28.4ZM213.887 39.6276L213.489 39.931L213.489 39.931L213.887 39.6276ZM217.6 44.5L217.202 44.8024C217.213 44.8164 217.224 44.8299 217.236 44.8427L217.6 44.5ZM218.779 50.9431L218.338 50.7069L218.338 50.7069L218.779 50.9431ZM217.9 53.6L217.402 53.5585C217.401 53.5723 217.4 53.5862 217.4 53.6H217.9ZM217.897 53.7302L218.397 53.7446L218.397 53.7446L217.897 53.7302ZM219.2 57.9L219.573 57.5665L219.565 57.558L219.2 57.9ZM225.8 59.1L225.623 58.6324L225.615 58.6358L225.8 59.1ZM229.9 54.7L230.363 54.5107C230.281 54.3106 230.08 54.1858 229.864 54.2013C229.649 54.2168 229.468 54.369 229.415 54.5787L229.9 54.7ZM237.9 74.6L238.388 74.4916C238.382 74.464 238.374 74.4369 238.363 74.4107L237.9 74.6ZM237.926 74.7158L238.414 74.6066L238.414 74.6065L237.926 74.7158ZM238 78.1L238.48 78.24L238.481 78.2374L238 78.1ZM236.415 80.6351L236.782 80.9745L236.782 80.9745L236.415 80.6351ZM234.9 83.1L234.416 82.9738L234.415 82.9787L234.9 83.1ZM241.43 89.4088L241.368 88.9128L241.367 88.9128L241.43 89.4088ZM241.5 89.4L241.563 89.8961L241.564 89.8959L241.5 89.4ZM246.645 86.2692L247.038 86.5792L247.038 86.5792L246.645 86.2692ZM246.7 86.2L247.199 86.1734C247.188 85.9662 247.051 85.7873 246.853 85.7239C246.655 85.6605 246.439 85.7257 246.31 85.8878L246.7 86.2ZM248 108.7L248.485 108.821C248.497 108.773 248.502 108.723 248.499 108.673L248 108.7ZM245.9 112.8L245.524 112.471L245.522 112.473L245.9 112.8ZM244.34 114.148L244.627 114.558L244.627 114.558L244.34 114.148ZM242.8 115.8L242.347 115.589L242.342 115.6L242.8 115.8ZM242.66 119.418L243.148 119.308L243.148 119.308L242.66 119.418ZM242.7 119.6L242.21 119.698C242.211 119.706 242.213 119.714 242.215 119.721L242.7 119.6ZM245.8 123.3L246.003 122.843C245.999 122.841 245.994 122.839 245.99 122.837L245.8 123.3ZM248.7 123.6L248.672 123.101C248.667 123.101 248.661 123.102 248.655 123.102L248.7 123.6ZM252.7 122.6L253.189 122.706C253.23 122.518 253.159 122.323 253.007 122.205C252.855 122.087 252.649 122.067 252.477 122.153L252.7 122.6ZM248.1 144.7L248.537 144.943C248.562 144.898 248.58 144.85 248.59 144.799L248.1 144.7ZM245.4 147.6L245.624 148.047C245.632 148.043 245.64 148.039 245.648 148.034L245.4 147.6ZM243.697 148.097L243.623 147.602L243.623 147.602L243.697 148.097ZM242.1 148.6L241.848 148.168C241.844 148.171 241.84 148.173 241.835 148.176L242.1 148.6ZM239.8 154.1L239.313 154.211L239.313 154.212L239.8 154.1ZM244.003 157.643C243.965 157.626 243.925 157.609 243.884 157.59L243.481 158.506C243.523 158.524 243.562 158.541 243.597 158.557L244.003 157.643ZM248.542 158.049C247.466 158.18 245.798 158.377 243.99 157.637L243.611 158.563C245.679 159.409 247.578 159.174 248.663 159.042L248.542 158.049ZM248.95 158.002C248.825 158.015 248.687 158.032 248.542 158.049L248.663 159.042C248.81 159.024 248.937 159.009 249.05 158.998L248.95 158.002ZM244.038 168.541C245.838 165.266 247.638 161.991 249.438 158.742L248.563 158.258C246.762 161.509 244.962 164.784 243.162 168.059L244.038 168.541ZM238.638 178.342C240.438 175.091 242.238 171.816 244.038 168.541L243.162 168.059C241.362 171.334 239.562 174.609 237.763 177.858L238.638 178.342ZM233.611 181.088C235.923 180.562 237.498 179.405 238.535 178.472L237.866 177.728C236.902 178.595 235.477 179.638 233.389 180.112L233.611 181.088ZM231.978 181.348C232.401 181.308 232.922 181.26 233.621 181.085L233.379 180.115C232.757 180.27 232.298 180.314 231.885 180.352L231.978 181.348ZM230.557 181.729C231.04 181.439 231.389 181.403 231.978 181.348L231.885 180.352C231.284 180.408 230.735 180.456 230.043 180.871L230.557 181.729ZM228.588 187.089C228.362 186.097 228.473 184.972 228.844 183.974C229.216 182.973 229.83 182.157 230.554 181.731L230.047 180.869C229.07 181.443 228.334 182.477 227.907 183.626C227.478 184.778 227.338 186.103 227.613 187.311L228.588 187.089ZM235.473 191.401C231.962 191.591 229.216 189.6 228.585 187.079L227.615 187.321C228.385 190.4 231.639 192.609 235.527 192.399L235.473 191.401ZM219.454 208.654L235.854 192.254L235.147 191.546L218.747 207.946L219.454 208.654ZM215.3 209.4C216.861 209.4 218.314 209.089 219.258 208.774L218.942 207.826C218.086 208.111 216.74 208.4 215.3 208.4V209.4ZM213.526 209.289C213.987 209.339 214.546 209.4 215.3 209.4V208.4C214.603 208.4 214.09 208.344 213.635 208.295L213.526 209.289ZM211.647 209.378C212.345 209.163 212.792 209.209 213.526 209.289L213.635 208.295C212.887 208.213 212.262 208.143 211.353 208.422L211.647 209.378ZM211.59 209.396C211.614 209.389 211.638 209.381 211.658 209.374L211.342 208.426C211.329 208.43 211.312 208.435 211.286 208.444L211.59 209.396ZM208.824 211.365C209.665 210.02 211.16 209.534 211.59 209.397L211.286 208.444C210.851 208.583 209.026 209.155 207.976 210.835L208.824 211.365ZM208.664 215.614C208.469 215.125 207.762 213.135 208.829 211.357L207.971 210.843C206.638 213.065 207.532 215.475 207.736 215.986L208.664 215.614ZM213.421 219.715C213.254 219.673 212.333 219.415 211.316 218.777C210.301 218.139 209.22 217.142 208.67 215.629L207.73 215.971C208.38 217.758 209.649 218.911 210.784 219.623C211.918 220.335 212.946 220.627 213.179 220.685L213.421 219.715ZM193.834 231.142C200.434 227.642 207.036 224.141 213.537 220.64L213.063 219.76C206.565 223.259 199.966 226.758 193.366 230.258L193.834 231.142ZM189.151 231.577C190.925 232.132 192.669 231.571 193.771 231.17L193.429 230.23C192.331 230.629 190.875 231.068 189.449 230.623L189.151 231.577ZM187.261 230.562C187.717 230.907 188.248 231.312 189.159 231.58L189.441 230.62C188.714 230.406 188.304 230.097 187.866 229.765L187.261 230.562ZM185.708 229.791C186.416 229.924 186.79 230.205 187.261 230.562L187.866 229.765C187.375 229.393 186.843 228.987 185.892 228.809L185.708 229.791ZM181.3 231.5C182.374 230.068 184.176 229.521 185.713 229.792L185.887 228.808C184.024 228.479 181.826 229.132 180.5 230.9L181.3 231.5ZM180.96 236.503C180.669 235.825 179.874 233.461 181.305 231.494L180.496 230.906C178.726 233.339 179.731 236.175 180.041 236.897L180.96 236.503ZM184.338 240.301C183.676 239.916 181.752 238.787 180.973 236.536L180.028 236.864C180.936 239.489 183.162 240.774 183.835 241.166L184.338 240.301ZM184.457 240.371C184.423 240.35 184.381 240.326 184.338 240.301L183.835 241.166C183.881 241.192 183.915 241.212 183.943 241.229L184.457 240.371ZM172.049 243.79C176.124 242.965 180.2 242.14 184.302 241.29L184.099 240.31C180 241.16 175.926 241.985 171.851 242.81L172.049 243.79ZM159.802 246.29C163.9 245.44 167.974 244.615 172.049 243.79L171.851 242.81C167.776 243.635 163.7 244.46 159.599 245.31L159.802 246.29ZM157.516 244.756C157.983 245.137 158.601 245.641 159.413 246.21L159.987 245.39C159.207 244.844 158.613 244.361 158.148 243.981L157.516 244.756ZM157.188 244.49C157.288 244.57 157.396 244.659 157.516 244.756L158.148 243.981C158.029 243.884 157.917 243.793 157.813 243.71L157.188 244.49ZM156.222 243.675C156.466 243.895 156.747 244.148 157.193 244.495L157.807 243.705C157.39 243.381 157.131 243.147 156.891 242.932L156.222 243.675ZM155.41 243.007C155.75 243.25 155.961 243.44 156.222 243.675L156.891 242.932C156.626 242.693 156.38 242.471 155.991 242.193L155.41 243.007ZM155.053 242.759C155.175 242.846 155.3 242.934 155.423 243.016L155.978 242.184C155.869 242.112 155.756 242.031 155.631 241.943L155.053 242.759ZM153.392 241.888C154.005 242.024 154.523 242.384 155.053 242.759L155.631 241.943C155.123 241.584 154.449 241.099 153.609 240.912L153.392 241.888ZM149.238 242.969C150.34 241.958 152.056 241.446 153.342 241.874L153.658 240.926C151.944 240.354 149.86 241.042 148.562 242.231L149.238 242.969ZM147.988 248.492C147.892 248.057 147.705 247.117 147.798 246.056C147.891 245 148.258 243.86 149.237 242.97L148.564 242.23C147.343 243.34 146.909 244.75 146.802 245.969C146.695 247.183 146.909 248.243 147.012 248.708L147.988 248.492ZM149.754 252.046C149.225 251.518 148.369 250.204 147.988 248.492L147.012 248.708C147.431 250.596 148.375 252.082 149.047 252.754L149.754 252.046ZM137.563 252.049C141.537 252.349 145.515 252.649 149.368 252.899L149.433 251.901C145.586 251.651 141.613 251.351 137.638 251.051L137.563 252.049ZM125.768 251.199C129.615 251.449 133.587 251.749 137.563 252.049L137.638 251.051C133.663 250.751 129.686 250.451 125.833 250.201L125.768 251.199ZM124.448 250.006C124.823 250.5 125.084 250.853 125.543 251.129L126.057 250.271C125.793 250.113 125.644 249.928 125.244 249.4L124.448 250.006ZM123.91 249.312C124.127 249.584 124.299 249.81 124.448 250.006L125.244 249.4C125.095 249.205 124.916 248.97 124.691 248.688L123.91 249.312ZM123.016 247.018C123.141 247.655 123.286 248.408 123.888 249.283L124.712 248.717C124.234 248.021 124.119 247.444 123.998 246.826L123.016 247.018ZM122.319 245.323C122.788 245.878 122.89 246.374 123.016 247.018L123.998 246.826C123.869 246.17 123.732 245.445 123.082 244.677L122.319 245.323ZM116.516 244.351C118.622 243.344 121.176 244.005 122.322 245.327L123.078 244.673C121.624 242.995 118.578 242.256 116.084 243.449L116.516 244.351ZM113.785 247.521C113.82 247.382 114.02 246.81 114.464 246.156C114.904 245.507 115.567 244.803 116.515 244.351L116.085 243.449C114.934 243.997 114.146 244.843 113.636 245.594C113.13 246.34 112.88 247.018 112.815 247.279L113.785 247.521ZM113.999 250.767C113.924 249.641 113.849 248.522 113.8 247.378L112.801 247.422C112.851 248.578 112.926 249.709 113.001 250.833L113.999 250.767ZM114.2 254.178C114.149 253.022 114.074 251.891 113.999 250.767L113.001 250.833C113.076 251.959 113.151 253.078 113.201 254.222L114.2 254.178ZM94.0207 247.167L113.521 254.667L113.88 253.733L94.3797 246.233L94.0207 247.167ZM90.053 244.224C90.9503 246.018 92.7283 246.77 94.0532 247.178L94.3472 246.222C93.0721 245.83 91.6501 245.182 90.9474 243.776L90.053 244.224ZM89.6502 242.025C89.6502 242.656 89.6467 243.353 90.0471 244.211L90.9533 243.789C90.6537 243.147 90.6502 242.644 90.6502 242.025L89.6502 242.025ZM89.3379 240.09C89.6481 240.844 89.6502 241.41 89.6502 242.025H90.6502C90.6502 241.39 90.6523 240.656 90.2625 239.71L89.3379 240.09ZM85.8857 237.287C87.4353 237.651 88.8048 238.847 89.3406 240.097L90.2598 239.703C89.5956 238.153 87.9651 236.749 86.1147 236.313L85.8857 237.287ZM80.4087 239.888C81.5482 238.274 83.6732 236.845 85.9021 237.29L86.0983 236.31C83.3272 235.756 80.8522 237.526 79.5917 239.312L80.4087 239.888ZM79.4905 244.802C79.3979 244.339 79.0288 242.005 80.419 239.873L79.5814 239.327C77.9716 241.795 78.4025 244.461 78.5099 244.998L79.4905 244.802ZM61.8048 233.103C67.407 237.205 73.1088 241.306 78.7096 245.307L79.2908 244.493C73.6916 240.494 67.9934 236.395 62.3956 232.297L61.8048 233.103ZM58.8022 228.445C58.918 229.718 59.7148 231.329 61.7764 233.081L62.424 232.319C60.4856 230.671 59.8824 229.282 59.7981 228.355L58.8022 228.445ZM59.088 226.129C58.9106 226.747 58.6997 227.471 58.8029 228.452L59.7974 228.348C59.7162 227.576 59.874 227.015 60.0492 226.405L59.088 226.129ZM59.2184 224.034C59.4476 224.859 59.2916 225.419 59.088 226.129L60.0492 226.405C60.2575 225.679 60.4916 224.881 60.182 223.766L59.2184 224.034ZM56.3511 220.977C57.7715 221.421 58.8568 222.678 59.2171 224.029L60.1833 223.771C59.7436 222.122 58.4289 220.579 56.6493 220.023L56.3511 220.977ZM50.8538 223.054C51.144 222.763 51.9036 222.029 52.915 221.476C53.9288 220.922 55.1303 220.585 56.3472 220.976L56.6532 220.024C55.0701 219.515 53.5716 219.978 52.4354 220.599C51.2968 221.221 50.4564 222.037 50.1466 222.346L50.8538 223.054ZM48.5883 227.108C48.775 226.268 49.3414 224.566 50.8537 223.054L50.1466 222.346C48.459 224.034 47.8254 225.932 47.6121 226.892L48.5883 227.108ZM39.2161 216.076C42.0714 219.816 44.9094 223.533 47.6984 227.298L48.502 226.702C45.7079 222.93 42.8655 219.208 40.0109 215.469L39.2161 216.076ZM35.502 211.202C36.7411 212.834 37.9802 214.457 39.2161 216.076L40.0109 215.469C38.7749 213.85 37.5366 212.228 36.2984 210.598L35.502 211.202ZM33.5002 206.8C33.5002 207.929 33.8503 209.451 35.5361 211.243L36.2643 210.557C34.7501 208.949 34.5002 207.671 34.5002 206.8H33.5002ZM34.2807 204.221C33.9059 204.921 33.5002 205.667 33.5002 206.8H34.5002C34.5002 205.94 34.7899 205.388 35.1622 204.693L34.2807 204.221ZM35.1019 201.758C35.0106 202.854 34.6517 203.528 34.2807 204.221L35.1622 204.693C35.5434 203.982 35.9891 203.154 36.0985 201.842L35.1019 201.758ZM35.1032 201.655C35.1018 201.707 35.1002 201.759 35.1002 201.8H36.1002C36.1002 201.777 36.1012 201.742 36.1028 201.684L35.1032 201.655ZM33.9354 197.842C35.161 199.149 35.1218 201.014 35.1032 201.655L36.1028 201.684C36.1207 201.064 36.2008 198.796 34.665 197.158L33.9354 197.842ZM27.8859 196.764C28.8066 196.396 29.9696 196.232 31.0831 196.383C32.1947 196.534 33.2176 196.991 33.9177 197.822L34.6826 197.178C33.7828 196.109 32.5057 195.567 31.2173 195.392C29.9308 195.218 28.5938 195.404 27.5145 195.836L27.8859 196.764ZM24.0853 200.821C24.1188 200.687 24.3905 199.919 25.0074 199.053C25.6192 198.194 26.5467 197.272 27.8775 196.768L27.5229 195.833C25.9537 196.428 24.8812 197.506 24.193 198.472C23.5098 199.431 23.1816 200.313 23.1151 200.579L24.0853 200.821ZM19.1357 190.935C20.4606 194.26 21.7864 197.587 23.1374 200.889L24.063 200.511C22.714 197.213 21.3898 193.89 20.0647 190.565L19.1357 190.935ZM15.1374 180.989C16.4864 184.287 17.8106 187.61 19.1357 190.935L20.0647 190.565C18.7398 187.24 17.414 183.913 16.063 180.611L15.1374 180.989ZM15.0194 177.163C14.58 178.701 14.9136 180.115 15.1151 180.921L16.0853 180.679C15.8868 179.885 15.6204 178.699 15.981 177.437L15.0194 177.163ZM16.7183 174.426C16.1023 175.092 15.4051 175.84 15.0202 177.16L15.9802 177.44C16.2944 176.363 16.845 175.762 17.4526 175.104L16.7183 174.426ZM18.1164 172.174C17.8502 173.194 17.329 173.765 16.7183 174.426L17.4525 175.104C18.0684 174.438 18.7494 173.709 19.084 172.426L18.1164 172.174ZM16.9466 167.654C18.104 168.811 18.4793 170.722 18.1151 172.179L19.0853 172.421C19.5211 170.678 19.0964 168.389 17.6537 166.946L16.9466 167.654ZM12.1331 166.487C13.0385 166.372 15.3898 166.097 16.9466 167.654L17.6537 166.946C15.7091 165.002 12.856 165.387 12.0071 165.495L12.1331 166.487ZM12.0621 166.496C12.0846 166.493 12.1085 166.49 12.1329 166.487L12.0072 165.495C11.9823 165.498 11.9596 165.501 11.9383 165.504L12.0621 166.496ZM7.2474 169.441C7.72509 168.836 9.30213 166.852 12.0642 166.496L11.9362 165.504C8.74888 165.915 6.95475 168.198 6.46276 168.821L7.2474 169.441ZM7.19068 169.512C7.20794 169.491 7.22721 169.466 7.24739 169.441L6.46277 168.821C6.44211 168.847 6.42478 168.869 6.40971 168.888L7.19068 169.512ZM5.65109 157.98C5.87611 161.73 6.10101 165.479 6.3009 169.227L7.29949 169.173C7.09938 165.421 6.87428 161.67 6.6493 157.92L5.65109 157.98ZM5.00091 146.727C5.20101 150.479 5.42611 154.23 5.65109 157.98L6.6493 157.92C6.42428 154.17 6.19938 150.421 5.99949 146.673L5.00091 146.727ZM7.22391 142.271C6.48363 143.117 5.53834 144.486 5.01512 146.579L5.98527 146.821C6.46205 144.914 7.31676 143.683 7.97648 142.929L7.22391 142.271ZM8.82985 140.953C8.36882 141.262 7.81881 141.63 7.2338 142.26L7.96659 142.94C8.46632 142.402 8.93143 142.089 9.38684 141.783L8.82985 140.953ZM10.2471 139.489C9.90197 140.228 9.46327 140.528 8.82984 140.953L9.38685 141.783C10.0336 141.35 10.6825 140.92 11.1533 139.911L10.2471 139.489ZM10.3523 136.192C10.5012 136.852 10.8001 138.224 10.2421 139.5L11.1583 139.9C11.8618 138.292 11.4736 136.618 11.3278 135.972L10.3523 136.192ZM10.3099 135.998C10.3213 136.055 10.3366 136.123 10.3523 136.192L11.3278 135.972C11.3112 135.898 11.2989 135.844 11.2905 135.802L10.3099 135.998ZM7.51088 132.663C8.48434 133.061 9.16307 133.798 9.61643 134.507C10.0709 135.218 10.2764 135.866 10.3151 136.021L11.2853 135.779C11.224 135.534 10.9795 134.782 10.459 133.968C9.93732 133.152 9.11605 132.239 7.88951 131.737L7.51088 132.663ZM4.74547 132.398C5.81999 132.3 6.62494 132.308 7.5145 132.664L7.88589 131.736C6.77545 131.292 5.7804 131.3 4.65492 131.402L4.74547 132.398ZM0.923799 133.347C1.66986 132.974 3.00361 132.495 4.72793 132.399L4.67246 131.401C2.79678 131.505 1.33053 132.026 0.476591 132.453L0.923799 133.347ZM4.81016 110.701C3.3103 118.1 1.81081 125.397 0.211488 132.794L1.1889 133.006C2.78959 125.603 4.29009 118.3 5.79023 110.899L4.81016 110.701ZM7.75213 107.366C6.23235 108.234 5.37551 109.531 4.85298 110.576L5.74741 111.024C6.22488 110.069 6.96804 108.966 8.24827 108.234L7.75213 107.366ZM9.62881 106.809C9.12492 106.884 8.53997 106.971 7.77659 107.353L8.2238 108.247C8.83964 107.939 9.29423 107.87 9.77703 107.798L9.62881 106.809ZM11.0483 106.368C10.527 106.672 10.1282 106.734 9.6288 106.809L9.77704 107.798C10.294 107.72 10.8556 107.638 11.5521 107.232L11.0483 106.368ZM13.1126 101.411C13.5606 103.382 12.4742 105.477 11.0352 106.376L11.5652 107.224C13.3262 106.123 14.6398 103.618 14.0878 101.189L13.1126 101.411ZM9.51684 97.8097C10.5218 98.2516 12.6 99.1894 13.113 101.412L14.0874 101.188C13.4494 98.4228 10.8803 97.3169 9.91939 96.8943L9.51684 97.8097ZM9.39714 97.7569C9.43492 97.7737 9.47525 97.7914 9.51684 97.8097L9.91939 96.8943C9.87736 96.8759 9.83891 96.8589 9.80325 96.8431L9.39714 97.7569ZM4.72146 97.4851C5.4843 97.2944 7.35782 96.9229 9.41088 97.7628L9.78951 96.8372C7.44257 95.8771 5.31609 96.3057 4.47893 96.5149L4.72146 97.4851ZM9.56204 86.9591C7.76197 90.2343 5.96235 93.5086 4.1628 96.7578L5.03759 97.2423C6.83806 93.9914 8.63846 90.7157 10.4384 87.4408L9.56204 86.9591ZM14.9628 77.1578C13.1623 80.4086 11.362 83.6843 9.56204 86.9591L10.4384 87.4408C12.2385 84.1657 14.0381 80.8914 15.8376 77.6423L14.9628 77.1578ZM19.9894 74.4124C17.6769 74.938 16.1024 76.0954 15.0657 77.0284L15.7347 77.7717C16.698 76.9046 18.1234 75.862 20.211 75.3876L19.9894 74.4124ZM21.6225 74.1521C21.1997 74.1916 20.6781 74.2401 19.9789 74.4149L20.2215 75.3851C20.8433 75.2296 21.302 75.1864 21.7156 75.1478L21.6225 74.1521ZM23.0429 73.7713C22.5603 74.0609 22.211 74.0971 21.6225 74.1521L21.7156 75.1478C22.3166 75.0916 22.8658 75.0438 23.5574 74.6288L23.0429 73.7713ZM25.0126 68.4108C25.2381 69.4029 25.1276 70.5284 24.7566 71.5256C24.3839 72.5271 23.7702 73.3435 23.0467 73.769L23.5537 74.631C24.5302 74.0566 25.2665 73.0229 25.6938 71.8744C26.1227 70.7216 26.2623 69.3971 25.9878 68.1892L25.0126 68.4108ZM18.1272 64.0993C21.6387 63.9095 24.3847 65.8997 25.0151 68.4213L25.9853 68.1787C25.2157 65.1004 21.9617 62.8906 18.0732 63.1007L18.1272 64.0993ZM34.1466 46.8465L17.7466 63.2465L18.4537 63.9536L34.8537 47.5536L34.1466 46.8465ZM38.3002 46.1C36.7396 46.1 35.2861 46.411 34.3421 46.7257L34.6583 47.6744C35.5143 47.389 36.8608 47.1 38.3002 47.1V46.1ZM40.074 46.2112C39.6134 46.161 39.0547 46.1 38.3002 46.1V47.1C38.9972 47.1 39.5106 47.1557 39.9657 47.2053L40.074 46.2112ZM41.9532 46.1221C41.255 46.3369 40.808 46.2911 40.074 46.2112L39.9657 47.2053C40.7134 47.2867 41.3385 47.3575 42.2472 47.0779L41.9532 46.1221ZM42.0106 46.1035C41.9867 46.1111 41.9623 46.1189 41.9421 46.1257L42.2583 47.0744C42.271 47.0701 42.2884 47.0646 42.3145 47.0562L42.0106 46.1035ZM44.7762 44.135C43.9356 45.48 42.4401 45.9665 42.0106 46.1035L42.3145 47.0562C42.7497 46.9174 44.5743 46.3449 45.6242 44.665L44.7762 44.135ZM44.936 39.8857C45.1315 40.3746 45.8382 42.3648 44.7714 44.1428L45.6289 44.6573C46.9622 42.4352 46.0689 40.0254 45.8644 39.5143L44.936 39.8857ZM40.1789 35.7851C40.3465 35.827 41.2678 36.0852 42.2843 36.7235C43.2992 37.3607 44.3801 38.3578 44.9303 39.8709L45.8701 39.5291C45.2203 37.7422 43.9512 36.5893 42.8161 35.8766C41.6826 35.1649 40.6539 34.8731 40.4215 34.8149L40.1789 35.7851ZM59.7645 24.3591C53.1652 27.8587 46.5643 31.3592 40.0631 34.8598L40.5372 35.7402C47.0351 32.2414 53.6332 28.7424 60.233 25.2425L59.7645 24.3591ZM59.7656 24.3585L59.7642 24.3592L60.2333 25.2423L60.2348 25.2416L59.7656 24.3585ZM64.4493 23.9228C62.6751 23.3683 60.9315 23.9293 59.8293 24.3301L60.1711 25.2699C61.2689 24.8707 62.7253 24.4317 64.1511 24.8773L64.4493 23.9228ZM66.3389 24.9381C65.8833 24.5927 65.3521 24.1882 64.4413 23.9203L64.1591 24.8797C64.8862 25.0935 65.2966 25.4028 65.7349 25.735L66.3389 24.9381ZM67.8923 25.7086C67.1847 25.5759 66.8102 25.2953 66.3389 24.9381L65.7349 25.735C66.2253 26.1067 66.7572 26.5132 67.7081 26.6914L67.8923 25.7086ZM72.3002 24C71.2264 25.4317 69.4241 25.9789 67.8871 25.7076L67.7133 26.6924C69.5763 27.0212 71.774 26.3683 73.1002 24.6L72.3002 24ZM72.6831 19.1476C72.9699 20.0742 73.6074 22.2026 72.2958 24.0059L73.1046 24.5941C74.7408 22.3442 73.9134 19.7405 73.6384 18.8519L72.6831 19.1476ZM72.6194 18.9374C72.637 18.999 72.6596 19.0718 72.6831 19.1476L73.6384 18.8519C73.6138 18.7725 73.5949 18.7114 73.581 18.6626L72.6194 18.9374ZM69.2624 15.1988C69.9244 15.584 71.8486 16.7127 72.6277 18.9636L73.5727 18.6365C72.6639 16.0111 70.4379 14.7258 69.7652 14.3344L69.2624 15.1988ZM69.143 15.1288C69.1776 15.1496 69.2191 15.1737 69.2624 15.1988L69.7652 14.3344C69.7198 14.3081 69.685 14.2878 69.6574 14.2713L69.143 15.1288ZM81.551 11.71C77.4762 12.5349 73.4 13.3601 69.2987 14.2104L69.5017 15.1896C73.6004 14.3399 77.6742 13.5151 81.7494 12.6901L81.551 11.71ZM93.7987 9.21042C89.7 10.0601 85.6262 10.8849 81.551 11.71L81.7494 12.6901C85.8242 11.8651 89.9004 11.0399 94.0017 10.1896L93.7987 9.21042ZM96.0847 10.7439C95.6175 10.3631 94.9993 9.85906 94.1869 9.2904L93.6135 10.1096C94.3936 10.6557 94.9875 11.1396 95.4529 11.519L96.0847 10.7439ZM96.4125 11.0096C96.3128 10.9298 96.2045 10.8415 96.0847 10.7439L95.4529 11.519C95.5718 11.6159 95.6838 11.7072 95.7879 11.7904L96.4125 11.0096ZM97.3785 11.8253C97.1343 11.6054 96.8531 11.3521 96.4072 11.0053L95.7932 11.7947C96.21 12.1189 96.4699 12.3528 96.7094 12.5685L97.3785 11.8253ZM98.1908 12.4931C97.8508 12.2503 97.6396 12.0604 97.3785 11.8253L96.7094 12.5685C96.974 12.8067 97.2206 13.029 97.6096 13.3069L98.1908 12.4931ZM98.4399 12.6615C98.3509 12.6008 98.2625 12.5406 98.1775 12.484L97.6228 13.316C97.7028 13.3694 97.787 13.4267 97.8769 13.488L98.4399 12.6615ZM100.221 13.6149C99.6344 13.4682 99.0203 13.0569 98.4399 12.6615L97.8769 13.488C98.42 13.8579 99.1859 14.3868 99.9789 14.5851L100.221 13.6149ZM104.362 12.5314C103.26 13.5417 101.544 14.0543 100.258 13.6257L99.9421 14.5744C101.656 15.1457 103.74 14.4583 105.038 13.2686L104.362 12.5314ZM105.512 7.00848C105.609 7.44314 105.796 8.38581 105.714 9.44916C105.633 10.5099 105.287 11.6506 104.355 12.5379L105.045 13.2621C106.213 12.1495 106.618 10.7401 106.711 9.52586C106.804 8.31421 106.592 7.25688 106.488 6.79155L105.512 7.00848ZM103.721 3.42541C104.286 4.08469 105.135 5.31239 105.512 7.00848L106.488 6.79155C106.065 4.88763 105.115 3.51533 104.48 2.77462L103.721 3.42541ZM105.204 2.66315L104.129 2.60085L104.071 3.59917L105.147 3.66148L105.204 2.66315ZM124.936 3.90132C118.39 3.42697 111.755 3.04261 105.204 2.66315L105.147 3.66148C111.698 4.04101 118.326 4.42496 124.864 4.8987L124.936 3.90132ZM125.496 4.03744C125.322 3.99358 125.167 3.95464 125.032 3.91763L124.769 4.88239C124.916 4.92246 125.08 4.9639 125.252 5.00711L125.496 4.03744ZM129.597 6.09516C129.084 5.42831 128.327 4.99048 127.591 4.68519C126.851 4.37816 126.078 4.18406 125.496 4.03744L125.252 5.00711C125.842 5.15585 126.546 5.33411 127.208 5.60886C127.874 5.88535 128.445 6.23872 128.804 6.70487L129.597 6.09516ZM130.484 8.38193C130.359 7.74485 130.214 6.99244 129.612 6.11675L128.788 6.68328C129.266 7.37877 129.382 7.95647 129.503 8.57414L130.484 8.38193ZM131.182 10.077C130.712 9.52189 130.61 9.02645 130.484 8.38192L129.503 8.57415C129.631 9.23039 129.768 9.95472 130.419 10.723L131.182 10.077ZM136.984 11.0489C134.878 12.0562 132.324 11.3948 131.178 10.0725L130.422 10.7275C131.876 12.4052 134.922 13.1438 137.416 11.9511L136.984 11.0489ZM139.715 7.87874C139.68 8.01847 139.48 8.58989 139.036 9.24426C138.596 9.89304 137.934 10.5969 136.985 11.0486L137.415 11.9514C138.567 11.4031 139.354 10.557 139.864 9.80576C140.37 9.06013 140.62 8.38156 140.685 8.12129L139.715 7.87874ZM139.302 1.24333C139.501 3.53118 139.601 5.72113 139.701 8.02173L140.7 7.97829C140.6 5.6789 140.499 3.46885 140.298 1.1567L139.302 1.24333ZM159.48 8.23334L139.98 0.733339L139.621 1.66669L159.121 9.16669L159.48 8.23334ZM163.447 11.1764C162.55 9.38182 160.772 8.62978 159.447 8.22212L159.153 9.1779C160.428 9.57024 161.85 10.2182 162.553 11.6236L163.447 11.1764ZM163.814 13.323C163.826 12.715 163.845 12.0271 163.453 11.1886L162.547 11.6115C162.832 12.223 162.826 12.7048 162.814 13.3023L163.814 13.323ZM164.153 15.2871C163.791 14.5195 163.801 13.954 163.814 13.323L162.814 13.3023C162.8 13.9599 162.782 14.7239 163.248 15.7129L164.153 15.2871ZM167.615 18.1133C166.065 17.7487 164.696 16.5533 164.16 15.3031L163.241 15.697C163.905 17.2467 165.535 18.6513 167.386 19.0867L167.615 18.1133ZM173.092 15.5117C171.952 17.126 169.827 18.5555 167.598 18.1097L167.402 19.0903C170.173 19.6445 172.648 17.874 173.909 16.0884L173.092 15.5117ZM174.01 10.5981C174.102 11.0608 174.472 13.3953 173.081 15.5269L173.919 16.0731C175.529 13.6047 175.098 10.9392 174.99 10.4019L174.01 10.5981ZM191.696 22.2966C186.093 18.195 180.392 14.0937 174.791 10.0931L174.21 10.9069C179.809 14.9063 185.507 19.005 191.105 23.1034L191.696 22.2966ZM194.698 26.9547C194.582 25.6818 193.786 24.0714 191.724 22.319L191.076 23.081C193.015 24.7286 193.618 26.1182 193.702 27.0453L194.698 26.9547ZM194.412 29.2711C194.59 28.6528 194.801 27.9286 194.697 26.9477L193.703 27.0524C193.784 27.8243 193.626 28.3848 193.451 28.9953L194.412 29.2711ZM194.282 31.3662C194.053 30.5413 194.209 29.9805 194.412 29.2711L193.451 28.9953C193.243 29.7211 193.009 30.5193 193.318 31.6338L194.282 31.3662ZM197.149 34.4228C195.729 33.9789 194.644 32.7222 194.283 31.3712L193.317 31.6288C193.757 33.2778 195.071 34.8211 196.851 35.3773L197.149 34.4228ZM202.647 32.3465C202.356 32.6367 201.597 33.371 200.585 33.9238C199.572 34.4778 198.37 34.8151 197.153 34.424L196.847 35.376C198.43 35.8849 199.929 35.4222 201.065 34.8013C202.204 34.179 203.044 33.3633 203.354 33.0536L202.647 32.3465ZM204.912 28.2915C204.725 29.1315 204.159 30.8341 202.647 32.3465L203.354 33.0536C205.041 31.366 205.675 29.4685 205.888 28.5085L204.912 28.2915ZM214.284 39.3241C211.429 35.5845 208.591 31.8676 205.802 28.1024L204.998 28.6976C207.792 32.4696 210.635 36.1923 213.489 39.931L214.284 39.3241ZM217.998 44.1977C216.759 42.5656 215.52 40.9427 214.284 39.3241L213.489 39.931C214.725 41.5498 215.964 43.1716 217.202 44.8024L217.998 44.1977ZM220 48.6C220 47.4705 219.65 45.9485 217.964 44.1573L217.236 44.8427C218.75 46.4515 219 47.7295 219 48.6H220ZM219.22 51.1792C219.595 50.4794 220 49.7329 220 48.6H219C219 49.4605 218.71 50.012 218.338 50.7069L219.22 51.1792ZM218.398 53.6415C218.49 52.546 218.849 51.8717 219.22 51.1792L218.338 50.7069C217.957 51.4184 217.511 52.246 217.402 53.5585L218.398 53.6415ZM218.397 53.7446C218.399 53.6933 218.4 53.6408 218.4 53.6H217.4C217.4 53.6229 217.399 53.658 217.398 53.7158L218.397 53.7446ZM219.565 57.558C218.339 56.2508 218.379 54.3864 218.397 53.7446L217.398 53.7158C217.38 54.3365 217.3 56.6037 218.835 58.242L219.565 57.558ZM225.615 58.6358C223.734 59.3881 221.085 59.2568 219.573 57.5666L218.828 58.2334C220.715 60.3432 223.867 60.412 225.986 59.5643L225.615 58.6358ZM229.415 54.5787C229.382 54.713 229.11 55.4814 228.493 56.3474C227.881 57.2062 226.954 58.1277 225.623 58.6325L225.978 59.5675C227.547 58.9723 228.619 57.8938 229.307 56.9276C229.991 55.9686 230.319 55.087 230.385 54.8213L229.415 54.5787ZM234.365 64.4649C233.04 61.1403 231.714 57.8132 230.363 54.5107L229.437 54.8893C230.786 58.1869 232.111 61.5097 233.436 64.8351L234.365 64.4649ZM238.363 74.4107C237.014 71.1132 235.69 67.7903 234.365 64.4649L233.436 64.8351C234.761 68.1597 236.086 71.4869 237.437 74.7893L238.363 74.4107ZM238.414 74.6065C238.405 74.5674 238.397 74.5292 238.388 74.4916L237.412 74.7084C237.421 74.747 237.429 74.7859 237.438 74.825L238.414 74.6065ZM238.481 78.2374C238.902 76.7623 238.612 75.4918 238.414 74.6066L237.438 74.8249C237.637 75.7119 237.864 76.7561 237.519 77.9627L238.481 78.2374ZM236.782 80.9745C237.398 80.3082 238.095 79.5597 238.48 78.24L237.52 77.96C237.206 79.0373 236.655 79.6384 236.048 80.2956L236.782 80.9745ZM235.384 83.2262C235.65 82.2059 236.171 81.6351 236.782 80.9745L236.048 80.2956C235.432 80.9618 234.751 81.6913 234.416 82.9738L235.384 83.2262ZM236.554 87.7465C235.396 86.5891 235.021 84.6779 235.385 83.2213L234.415 82.9787C233.979 84.7222 234.404 87.0109 235.847 88.4536L236.554 87.7465ZM241.367 88.9128C240.462 89.0278 238.111 89.3033 236.554 87.7465L235.847 88.4536C237.791 90.3982 240.644 90.0127 241.493 89.9049L241.367 88.9128ZM241.438 88.904L241.368 88.9128L241.493 89.9049L241.563 89.8961L241.438 88.904ZM246.253 85.9592C245.775 86.5638 244.198 88.5477 241.436 88.9041L241.564 89.8959C244.752 89.4846 246.546 87.2018 247.038 86.5792L246.253 85.9592ZM246.31 85.8878C246.292 85.9093 246.273 85.9337 246.253 85.9592L247.038 86.5792C247.058 86.5531 247.076 86.5311 247.091 86.5123L246.31 85.8878ZM247.849 97.4201C247.624 93.6698 247.399 89.9214 247.199 86.1734L246.201 86.2266C246.401 89.9786 246.626 93.7302 246.851 97.48L247.849 97.4201ZM248.499 108.673C248.299 104.921 248.074 101.17 247.849 97.4201L246.851 97.48C247.076 101.23 247.301 104.979 247.501 108.727L248.499 108.673ZM246.276 113.129C247.017 112.283 247.962 110.914 248.485 108.821L247.515 108.579C247.038 110.486 246.184 111.717 245.524 112.471L246.276 113.129ZM244.627 114.558C245.103 114.224 245.672 113.827 246.278 113.127L245.522 112.473C245.002 113.072 244.521 113.411 244.053 113.739L244.627 114.558ZM243.253 116.011C243.59 115.291 244.015 114.987 244.627 114.558L244.053 113.739C243.43 114.176 242.804 114.609 242.347 115.589L243.253 116.011ZM243.148 119.308C242.999 118.648 242.7 117.276 243.258 116L242.342 115.6C241.639 117.208 242.027 118.882 242.173 119.528L243.148 119.308ZM243.19 119.502C243.179 119.445 243.164 119.377 243.148 119.308L242.173 119.528C242.189 119.602 242.201 119.656 242.21 119.698L243.19 119.502ZM245.99 122.837C245.016 122.439 244.337 121.702 243.884 120.993C243.429 120.282 243.224 119.634 243.185 119.479L242.215 119.721C242.276 119.966 242.521 120.718 243.041 121.532C243.563 122.348 244.384 123.261 245.611 123.763L245.99 122.837ZM248.655 123.102C247.572 123.201 246.781 123.189 246.003 122.843L245.597 123.757C246.62 124.211 247.628 124.2 248.745 124.098L248.655 123.102ZM252.477 122.153C251.731 122.526 250.397 123.005 248.672 123.101L248.728 124.099C250.604 123.995 252.07 123.474 252.924 123.047L252.477 122.153ZM248.59 144.799C250.09 137.4 251.59 130.103 253.189 122.706L252.211 122.494C250.611 129.898 249.11 137.2 247.61 144.601L248.59 144.799ZM245.648 148.034C247.166 147.167 248.021 145.873 248.537 144.943L247.663 144.457C247.18 145.327 246.435 146.433 245.152 147.166L245.648 148.034ZM243.772 148.591C244.275 148.516 244.86 148.429 245.624 148.047L245.177 147.153C244.561 147.461 244.106 147.53 243.623 147.602L243.772 148.591ZM242.352 149.032C242.873 148.728 243.272 148.666 243.772 148.591L243.623 147.602C243.106 147.68 242.545 147.762 241.848 148.168L242.352 149.032ZM240.288 153.989C239.84 152.018 240.926 149.923 242.365 149.024L241.835 148.176C240.074 149.277 238.761 151.782 239.313 154.211L240.288 153.989ZM243.884 157.59C242.879 157.148 240.8 156.211 240.287 153.988L239.313 154.212C239.951 156.977 242.52 158.083 243.481 158.506L243.884 157.59ZM125.8 146.3C115.676 146.3 107.5 138.124 107.5 128H106.5C106.5 138.676 115.124 147.3 125.8 147.3V146.3ZM144.1 128C144.1 138.124 135.924 146.3 125.8 146.3V147.3C136.476 147.3 145.1 138.676 145.1 128H144.1ZM125.8 109.7C135.924 109.7 144.1 117.876 144.1 128H145.1C145.1 117.324 136.476 108.7 125.8 108.7V109.7ZM107.5 128C107.5 117.876 115.676 109.7 125.8 109.7V108.7C115.124 108.7 106.5 117.324 106.5 128H107.5Z" fill="black"/>
</svg>
