<?xml version="1.0" encoding="UTF-8"?>
<svg width="66px" height="60px" viewBox="0 0 66 60" version="1.1" xmlns="http://www.w3.org/2000/svg" xmlns:xlink="http://www.w3.org/1999/xlink">
    <title>interface copy 3</title>
    <g id="Page-1" stroke="none" stroke-width="1" fill="none" fill-rule="evenodd">
        <g id="About-us" transform="translate(-729.000000, -741.000000)" fill="#000000" fill-rule="nonzero">
            <g id="About" transform="translate(64.000000, 167.000000)">
                <g id="о-нас" transform="translate(0.000000, 78.000000)">
                    <g id="Group-4" transform="translate(665.000000, 479.000000)">
                        <g id="interface-copy-3" transform="translate(0.000000, 17.000000)">
                            <path d="M29.9576131,59.9157248 C13.4401596,59.9157248 0,46.4760638 0,29.9586103 C0,13.4411569 13.4401596,0.000997340426 29.9576131,0.000997340426 C35.7012965,0.000997340426 41.289395,1.63763298 46.1180186,4.73686838 C47.0659907,5.34724072 47.34375,6.61087098 46.7333777,7.56133647 C46.1210106,8.51180183 44.8598737,8.78656915 43.9094082,8.17669545 C39.7425199,5.49933511 34.9168883,4.08610366 29.9576131,4.08610366 C15.6921543,4.08610366 4.08510638,15.6931517 4.08510638,29.9586103 C4.08510638,44.2235705 15.6921543,55.8306184 29.9576131,55.8306184 C44.2225731,55.8306184 55.829621,44.2235705 55.829621,29.9586103 C55.829621,29.1058843 55.7887301,28.2616356 55.7099401,27.4313497 C55.6012301,26.3063497 56.4235372,25.3095079 57.5455453,25.2007979 C58.6730386,25.0970745 59.6668883,25.914395 59.7760971,27.0364029 C59.8683511,27.9978391 59.9147274,28.9727394 59.9147274,29.9586103 C59.9147274,46.4760638 46.4750666,59.9157248 29.9576131,59.9157248 Z" id="Path"></path>
                            <path d="M33.3615359,36.7669547 C32.8389295,36.7669547 32.3158245,36.5679854 31.9183843,36.1680518 L19.6630652,23.9127327 C18.8651929,23.1143617 18.8651929,21.8208112 19.6630652,21.0229389 C20.4609375,20.2250666 21.754488,20.2250666 22.5523603,21.0229389 L33.364528,31.8351064 L61.8754986,3.32363694 C62.6738696,2.5257646 63.9674202,2.5257646 64.7652926,3.32363694 C65.5631649,4.12150928 65.5631649,5.41505987 64.7652926,6.21293221 L34.8076795,36.1705453 C34.4072474,36.5679854 33.884641,36.7669547 33.3615359,36.7669547 L33.3615359,36.7669547 Z" id="Path"></path>
                        </g>
                    </g>
                </g>
            </g>
        </g>
    </g>
</svg>