<?xml version="1.0" encoding="UTF-8"?>
<svg width="80px" height="80px" viewBox="0 0 80 80" version="1.1" xmlns="http://www.w3.org/2000/svg" xmlns:xlink="http://www.w3.org/1999/xlink">
    <title>interface (1)</title>
    <g id="Page-1" stroke="none" stroke-width="1" fill="none" fill-rule="evenodd">
        <g id="About-us" transform="translate(-1058.000000, -967.000000)" fill="#000000" fill-rule="nonzero">
            <g id="преимущества" transform="translate(57.000000, 938.000000)">
                <g id="3" transform="translate(849.000000, 0.000000)">
                    <g id="interface-(1)" transform="translate(152.000000, 29.000000)">
                        <path d="M14.0704345,61.8670655 C12.9504394,61.8670655 11.8737794,62.1466064 10.9185791,62.6715088 C5.88684078,56.2213134 3.125,48.2086181 3.125,40 C3.125,19.6667481 19.6667481,3.125 40,3.125 C42.4719237,3.125 44.9426269,3.37097172 47.34375,3.85620125 C48.1884766,4.02709969 49.0136719,3.48022469 49.1845703,2.63427734 C49.3554687,1.78833 48.8085937,0.964355469 47.9626466,0.792846719 C45.3582764,0.266723594 42.6794434,0 40,0 C29.3157959,0 19.2706298,4.16076656 11.7156983,11.7156983 C4.16076656,19.2706298 0,29.3157959 0,40 C0,48.9874267 3.05175781,57.7581787 8.60778812,64.7894287 C7.89245609,65.8581544 7.50793453,67.1142578 7.50793453,68.4295655 C7.50793453,70.1824952 8.19091797,71.8304444 9.43054203,73.069458 C10.6695556,74.309082 12.3175048,74.9920655 14.0704345,74.9920655 C15.8233642,74.9920655 17.4713134,74.309082 18.7109375,73.069458 C19.9505616,71.8304444 20.6329345,70.1818847 20.6329345,68.428955 C20.6329345,66.6766358 19.9505616,65.0280762 18.7109375,63.7890625 C17.4713134,62.5494384 15.8233642,61.8670655 14.0704345,61.8670655 Z M16.5008545,70.8599853 C15.8520508,71.5093994 14.9884033,71.8670655 14.0704345,71.8670655 C13.1524658,71.8670655 12.2894287,71.5093994 11.6400147,70.8599853 C10.9906006,70.2105713 10.6329345,69.3475342 10.6329345,68.4295655 C10.6329345,67.5109863 10.9906006,66.6479492 11.6400147,65.9985352 C12.2888184,65.3491211 13.1524658,64.9920655 14.0704345,64.9920655 C14.9884033,64.9920655 15.8514405,65.3497314 16.5008545,65.9985352 C17.1502686,66.6479492 17.5079345,67.5109863 17.5079345,68.4295655 C17.5079345,69.3475342 17.1502686,70.2105712 16.5008545,70.8599853 L16.5008545,70.8599853 Z" id="Shape"></path>
                        <path d="M71.3909912,15.2087403 C73.0895997,12.6605225 72.8167725,9.17663578 70.5700684,6.92993156 C69.3304444,5.69091797 67.6824952,5.00793453 65.9295655,5.00793453 C64.1766358,5.00793453 62.5286866,5.69091797 61.2890625,6.92993156 C60.0494384,8.16955562 59.3670655,9.81750484 59.3670655,11.5704345 C59.3670655,13.3233642 60.0494384,14.9713134 61.2890625,16.2109375 C62.5286866,17.4505616 64.1766358,18.1329345 65.9295655,18.1329345 C67.0495606,18.1329345 68.1262206,17.8533936 69.0814209,17.3284912 C74.1131592,23.7792969 76.875,31.7913819 76.875,40 C76.875,60.3332519 60.3332519,76.875 40,76.875 C37.5524903,76.875 35.1049805,76.6339111 32.7264405,76.1578369 C31.8804931,75.9887695 31.0571289,76.5374756 30.8874513,77.3834228 C30.7183838,78.2299805 31.2670898,79.0527344 32.1130372,79.2224122 C34.6929931,79.7381592 37.3468017,80 40,80 C50.6842041,80 60.7293702,75.8392334 68.2843017,68.2843017 C75.8392334,60.7293702 80,50.6842041 80,40 C80,31.0119628 76.9476319,22.2406006 71.3909912,15.2087403 Z M63.4991455,14.0014648 C62.8497314,13.3520508 62.4920655,12.4890137 62.4920655,11.5704345 C62.4920655,10.6524658 62.8497314,9.78942875 63.4991455,9.14001469 C64.1479492,8.49060062 65.0115967,8.13293453 65.9295655,8.13293453 C66.8475342,8.13293453 67.7111816,8.49060062 68.3605956,9.14001469 C69.7003173,10.4803467 69.7003173,12.6611328 68.3605956,14.0014648 C67.7111816,14.6502686 66.8475342,15.0079345 65.9295655,15.0079345 C65.0109862,15.0079345 64.1479492,14.6502686 63.4991455,14.0014648 Z" id="Shape"></path>
                        <path d="M33.5522461,66.875 C33.5522461,67.7380372 34.2523194,68.4375 35.1147461,68.4375 L44.8846436,68.4375 C45.7476806,68.4375 46.4471436,67.7380372 46.4471436,66.875 L46.4471436,63.8458252 C48.5015869,63.2928467 50.4656983,62.4786377 52.3114014,61.4154053 L54.4500733,63.5540772 C54.743042,63.8470459 55.1403809,64.0118408 55.55542,64.0118408 C55.9692383,64.0118408 56.3671875,63.8470459 56.6601562,63.5534669 L63.5656737,56.6430664 C64.175415,56.0327148 64.175415,55.043335 63.5656737,54.4335938 L61.4294434,52.2973633 C62.4926758,50.4516602 63.3068847,48.4875488 63.8598633,46.4331055 L66.8774414,46.4331055 C67.7404784,46.4331055 68.4399414,45.7336425 68.4399414,44.8706055 L68.4399414,35.100708 C68.4399414,34.2376709 67.7404784,33.538208 66.8774414,33.538208 L63.859253,33.538208 C63.3062744,31.484375 62.4926758,29.5202638 61.4294434,27.6745606 L63.5540772,25.5499267 C63.8470459,25.256958 64.0118408,24.8590088 64.0118408,24.44458 C64.0112305,24.0301514 63.8464356,23.6322022 63.5534669,23.3392334 L56.6424561,16.4337158 C56.0327148,15.8239747 55.043335,15.8239747 54.4329834,16.4343263 L52.3114014,18.5565186 C50.4656983,17.4932861 48.5015869,16.6790772 46.4471436,16.1260986 L46.4471436,13.125 C46.4471436,12.2619628 45.7476806,11.5625 44.8846436,11.5625 L35.1147461,11.5625 C34.2523194,11.5625 33.5522461,12.2619628 33.5522461,13.125 L33.5522461,16.1267091 C31.4984131,16.6790772 29.5343017,17.4932861 27.6885986,18.5565186 L25.5664062,16.4343263 C24.956665,15.824585 23.9672852,15.8239747 23.3569336,16.4337158 L16.4465331,23.3398438 C16.1529541,23.6328125 15.9881592,24.0301514 15.9881592,24.44458 C15.9881592,24.8590088 16.1529541,25.256958 16.4459228,25.5499267 L18.5705566,27.6745606 C17.5073242,29.5202638 16.6931153,31.4837647 16.1401367,33.538208 L13.1280517,33.538208 C12.2650147,33.538208 11.5655517,34.2376709 11.5655517,35.1000977 L11.5600569,44.8699952 C11.5594483,45.2844238 11.7242431,45.6823731 12.0172119,45.9753419 C12.3101806,46.2683106 12.7075195,46.4331055 13.1225586,46.4331055 L16.1401367,46.4331055 C16.6931153,48.4875488 17.5073242,50.4516602 18.5705566,52.2973633 L16.4343262,54.4335938 C15.824585,55.043335 15.8239747,56.0327148 16.4343262,56.6430664 L23.3398437,63.5534669 C23.6328125,63.8464356 24.0301514,64.0118408 24.44458,64.0118408 L24.4451905,64.0118408 C24.8596191,64.0118408 25.256958,63.8470459 25.5499267,63.5540772 L27.6879883,61.4154053 C29.5343017,62.4786377 31.4984131,63.2928467 33.5522461,63.8458252 L33.5522461,66.875 Z M28.3007812,58.1292725 C27.6824952,57.7294922 26.8688966,57.8161622 26.3476562,58.336792 L24.4451905,60.2392578 L19.7485352,55.5389405 L21.64917,53.6376953 C22.1697998,53.1170655 22.2564697,52.3034669 21.8566894,51.6851806 C20.4400634,49.4927978 19.4439697,47.0898438 18.8970947,44.5422363 C18.7420655,43.8226319 18.1060791,43.3081055 17.3693847,43.3081055 L14.6856689,43.3081055 L14.6893311,36.663208 L17.3693847,36.663208 C18.1060791,36.663208 18.7420655,36.149292 18.8970947,35.4290772 C19.4439697,32.88208 20.4400634,30.4791259 21.8566894,28.2867431 C22.2564697,27.668457 22.1697998,26.8548584 21.64917,26.3342284 L19.7607422,24.4451905 L24.4610595,19.7485352 L26.3476562,21.6357422 C26.8688966,22.156372 27.6818847,22.2424316 28.3007812,21.8432617 C30.4925537,20.4266358 32.8955078,19.430542 35.4431153,18.883667 C36.1627197,18.7286377 36.6772461,18.0920409 36.6772461,17.355957 L36.6772461,14.6875 L43.3221436,14.6875 L43.3221436,17.3553467 C43.3221436,18.0920409 43.8360595,18.7286377 44.5562744,18.8830566 C47.1032716,19.430542 49.5068359,20.4260253 51.6986084,21.8426514 C52.3168945,22.2424316 53.1304931,22.156372 53.6511231,21.6351319 L55.53833,19.7485352 L60.2386475,24.4451905 L58.3502197,26.3336181 C57.8289795,26.8548584 57.74292,27.668457 58.1427002,28.2867431 C59.5593263,30.4791259 60.5548095,32.88208 61.102295,35.4290772 C61.2567139,36.149292 61.8933106,36.663208 62.6300048,36.663208 L65.3149414,36.663208 L65.3149414,43.3081055 L62.6300048,43.3081055 C61.8933106,43.3081055 61.2573242,43.8226319 61.102295,44.5422363 C60.55542,47.0892334 59.5593263,49.4927978 58.1427002,51.6845703 C57.74292,52.3034669 57.8295898,53.1170655 58.3502197,53.6376953 L60.2508545,55.53833 L55.5541992,60.2386475 L53.6517334,58.336792 C53.1304931,57.8155517 52.3168945,57.7294922 51.6986084,58.1292725 C49.5062256,59.5458984 47.1032716,60.5413819 44.5562744,61.0888672 C43.8360595,61.2438966 43.3221436,61.8798828 43.3221436,62.6165772 L43.3221436,65.3125 L36.6772461,65.3125 L36.6772461,62.6165772 C36.6772461,61.8804931 36.1627197,61.2438966 35.4431153,61.0888672 C32.8961181,60.5419922 30.4931641,59.5458984 28.3007812,58.1292725 L28.3007812,58.1292725 Z" id="Shape"></path>
                        <path d="M52.9107666,40 C52.9107666,32.8808594 47.1191406,27.0892334 40,27.0892334 C32.8808594,27.0892334 27.0892334,32.8808594 27.0892334,40 C27.0892334,47.1191406 32.8808594,52.9107666 40,52.9107666 C47.1191406,52.9107666 52.9107666,47.1191406 52.9107666,40 Z M30.2142334,40 C30.2142334,34.6038819 34.6038819,30.2142334 40,30.2142334 C45.3961181,30.2142334 49.7857666,34.6044922 49.7857666,40 C49.7857666,45.3955078 45.3961181,49.7857666 40,49.7857666 C34.6038819,49.7857666 30.2142334,45.3961181 30.2142334,40 Z" id="Shape"></path>
                        <path d="M54.387207,5.90942375 C54.7985841,5.90942375 55.2014159,5.7421875 55.4919434,5.45166016 C55.7824706,5.15930172 55.949707,4.75646969 55.949707,4.34509281 C55.949707,3.93615719 55.7830811,3.53271484 55.4919434,3.24035641 C55.2014159,2.94982906 54.7985841,2.78259281 54.387207,2.78259281 C53.9746094,2.78259281 53.5736084,2.94982906 53.2830811,3.24035641 C52.9919434,3.53271484 52.824707,3.93432625 52.824707,4.34509281 C52.824707,4.75769047 52.9919434,5.15930172 53.2830811,5.45166016 C53.5736084,5.7421875 53.9746094,5.90942375 54.387207,5.90942375 Z" id="Path"></path>
                        <path d="M25.6811523,74.1186523 C25.2703858,74.1186523 24.8669434,74.2858887 24.5764159,74.5764159 C24.2858887,74.8669434 24.1186523,75.2703858 24.1186523,75.6811523 C24.1186523,76.09375 24.2858887,76.4953613 24.5764159,76.7858887 C24.8669434,77.0764159 25.2703858,77.2436523 25.6811523,77.2436523 C26.0919189,77.2436523 26.4953613,77.0764159 26.7858887,76.7858887 C27.0764159,76.4953613 27.2436523,76.0919189 27.2436523,75.6811523 C27.2436523,75.2703858 27.0764159,74.8669434 26.7858887,74.5764159 C26.4953613,74.2858887 26.0919189,74.1186523 25.6811523,74.1186523 Z" id="Path"></path>
                    </g>
                </g>
            </g>
        </g>
    </g>
</svg>