<?xml version="1.0" encoding="UTF-8"?>
<svg width="80px" height="80px" viewBox="0 0 80 80" version="1.1" xmlns="http://www.w3.org/2000/svg" xmlns:xlink="http://www.w3.org/1999/xlink">
    <title>Shape</title>
    <g id="Page-1" stroke="none" stroke-width="1" fill="none" fill-rule="evenodd">
        <g id="About-us" transform="translate(-642.000000, -967.000000)" fill="#000000" fill-rule="nonzero">
            <g id="преимущества" transform="translate(57.000000, 938.000000)">
                <g id="2" transform="translate(425.000000, 0.000000)">
                    <path d="M237.65625,34.7739698 L227.390137,34.7739698 C227.427368,33.6368762 227.44812,32.4930687 227.44812,31.3437679 C227.44812,30.0492024 226.398315,29 225.10437,29 L174.89563,29 C173.601685,29 172.55188,30.0492024 172.55188,31.3437679 C172.55188,32.4930687 172.572632,33.6368762 172.609863,34.7739698 L162.34375,34.7739698 C161.049194,34.7739698 160,35.8231722 160,37.1177377 C160,47.6195267 162.744751,57.5274394 167.728272,65.0171204 C172.654419,72.4213517 179.216309,76.6682104 186.304932,77.0814215 C187.911987,78.830092 189.610596,80.2558842 191.380005,81.343539 L191.380005,91.7604885 L187.44812,91.7604885 C182.694702,91.7604885 178.828125,95.6277055 178.828125,100.380549 L178.828125,104.312464 L178.661499,104.312464 C177.366943,104.312464 176.317749,105.362277 176.317749,106.656232 C176.317749,107.950798 177.366943,109 178.661499,109 L221.338501,109 C222.633057,109 223.682251,107.950798 223.682251,106.656232 C223.682251,105.362277 222.633057,104.312464 221.338501,104.312464 L221.171875,104.312464 L221.171875,100.380549 C221.171875,95.6277055 217.305298,91.7604885 212.55188,91.7604885 L208.619995,91.7604885 L208.619995,81.343539 C210.389404,80.2564945 212.088623,78.830092 213.695679,77.0814215 C220.783691,76.6682104 227.345581,72.4213517 232.272339,65.0171204 C237.255859,57.5274394 240,47.6195267 240,37.1177377 C240,35.8231722 238.950806,34.7739698 237.65625,34.7739698 Z M171.630859,62.4206651 C167.520142,56.2432499 165.10498,48.1633542 164.736938,39.4615056 L172.871704,39.4615056 C173.717041,50.1586086 176.228027,60.0463793 180.152588,67.89495 C180.777588,69.1449595 181.431274,70.3259989 182.109375,71.4380678 C178.21106,69.9658888 174.603272,66.8884726 171.630859,62.4206651 Z M216.484375,100.380549 L216.484375,104.313075 L183.515625,104.313075 L183.515625,100.380549 C183.515625,98.2125641 185.279541,96.4480242 187.44812,96.4480242 L212.55188,96.4480242 C214.720459,96.4480242 216.484375,98.2125641 216.484375,100.380549 Z M203.932495,91.7604885 L196.067505,91.7604885 L196.067505,83.3802977 C197.355957,83.7196557 198.668823,83.8960486 200,83.8960486 C201.331177,83.8960486 202.644043,83.7196557 203.932495,83.3802977 L203.932495,91.7604885 Z M205.383911,77.8040833 C205.27832,77.8474186 205.177002,77.8999091 205.079956,77.957893 C203.423462,78.7818738 201.721191,79.2085129 200,79.2085129 C198.279419,79.2085129 196.577759,78.7818738 194.921875,77.9591138 C194.823608,77.8999091 194.72168,77.8474186 194.614868,77.8028626 C192.7771,76.8311755 190.999145,75.363879 189.317627,73.4357638 C189.229126,73.3094201 189.129639,73.192842 189.019165,73.0866401 C187.349853,71.1048134 185.779419,68.6670507 184.345093,65.7983764 C180.037842,57.1844191 177.550049,45.8580388 177.266846,33.6875358 L222.733154,33.6875358 C222.449341,45.8580388 219.961548,57.1850294 215.654907,65.7983764 C214.220581,68.6670507 212.650147,71.1048134 210.981445,73.0866401 C210.870361,73.192842 210.769653,73.3100304 210.681763,73.4363742 C209.000244,75.3650998 207.22168,76.8317858 205.383911,77.8040833 Z M228.369141,62.4206651 C225.396728,66.8884726 221.78894,69.9658888 217.890625,71.4380678 C218.568726,70.3259989 219.222412,69.1449595 219.847412,67.89495 C223.771973,60.0463793 226.282349,50.1586086 227.128296,39.4615056 L235.263062,39.4615056 C234.89502,48.1633542 232.479858,56.2432499 228.369141,62.4206651 Z" id="Shape"></path>
                </g>
            </g>
        </g>
    </g>
</svg>