<svg width="37" height="55" viewBox="0 0 37 55" fill="none" xmlns="http://www.w3.org/2000/svg">
<path d="M19.1971 8.95732C21.6552 8.95732 23.6478 6.99357 23.6478 4.57115C23.6478 2.14873 21.6552 0.184967 19.1971 0.184967C16.739 0.184967 14.7464 2.14873 14.7464 4.57115C14.7464 6.99357 16.739 8.95732 19.1971 8.95732Z" fill="black"/>
<path fill-rule="evenodd" clip-rule="evenodd" d="M19.2239 8.40245C21.4154 8.40245 23.192 6.65163 23.192 4.49188C23.192 2.33214 21.4154 0.581314 19.2239 0.581314C17.0324 0.581314 15.2558 2.33214 15.2558 4.49188C15.2558 6.65163 17.0324 8.40245 19.2239 8.40245Z" stroke="white"/>
<path d="M25.9 20.187C29.5464 20.2134 33.1659 20.2134 36.8123 20.2398C35.7667 18.6016 32.4152 13.8191 25.9536 11.626C18.8217 9.19512 12.5746 11.4939 10.6978 12.3923C8.55289 13.4228 7.1855 14.9817 7.1855 14.9817C6.72971 15.5102 5.84492 16.5142 5.46956 17.8354C4.6384 20.7947 6.78333 23.6748 7.13188 24.1504C8.92826 26.5285 11.8775 27.6646 17.7493 29.9634C20.5377 31.0468 22.1732 31.5224 23.7014 33.2663C24.9348 34.6667 25.3906 36.1463 25.8196 37.4411C26.4362 39.3435 27.321 42.1179 26.0877 44.998C25.8464 45.5793 25.2029 47.0589 23.6478 48.1687C20.779 50.2297 16.221 50.0711 14.1297 47.7724C13.2985 46.8476 13.0036 45.7642 12.7891 44.9187C12.2529 42.7785 12.6283 40.9553 12.8964 40.0305C8.60652 40.189 4.31666 40.3211 0.0536194 40.4797C0.938402 42.4614 3.05652 46.4248 7.50724 49.3577C15.1217 54.4045 23.3529 52.4228 24.7471 52.0528C26.5703 51.5772 30.1362 50.5996 33.1391 47.4553C34.4261 46.1077 37.1609 43.2541 36.9732 39.502C36.7051 33.4776 29.2514 30.0427 28.5812 29.752C27.5355 29.2764 24.7471 28.1931 21.1812 27.6118C18.8754 27.2419 18.0978 27.374 16.7841 26.687C15.0949 25.7886 13.0304 23.8333 12.7891 20.9268C12.7623 20.5305 12.521 17.4919 14.8 15.3781C17.4812 12.8943 22.3877 12.9207 24.6399 15.5894C26.1145 17.2805 25.9804 19.4736 25.9 20.187Z" fill="black"/>
<path fill-rule="evenodd" clip-rule="evenodd" d="M25.5246 47.9573C25.0688 48.4329 24.2377 49.1199 23.0312 49.6484C20.4572 50.7581 16.9717 50.6524 14.5051 48.6972C14.2369 48.4858 12.7087 47.5081 12.1993 45.5528C11.7167 43.6504 11.5558 41.8272 11.7971 41.0081C7.96303 41.1402 5.46956 41.1138 1.6355 41.2459C2.43985 43.0427 3.94129 45.5528 7.93622 48.1951C14.7732 52.7134 20.6181 52.2378 21.8783 51.9207C23.5138 51.498 28.742 50.8638 31.45 48.0366C32.6029 46.8211 36.2225 43.122 36.0616 39.7663C35.8203 34.376 30.3507 31.4959 29.7609 31.2317C27.2406 30.0955 24.8275 29.1707 22.0391 28.5102C18.2587 27.5854 17.4275 27.9553 15.7384 26.8984C15.2558 26.5813 11.7435 24.2825 11.7435 20.2398C11.7435 16.5935 14.5855 14.4268 14.8 14.2683C17.7761 12.0752 22.5217 12.0488 24.9616 14.7175C26.4362 16.3293 26.5703 18.4167 26.5703 19.2622C29.171 19.2358 31.7717 19.1829 34.3725 19.1565C32.9514 17.4126 29.8681 14.2419 24.908 12.5772C19.6529 10.8069 14.1833 11.4146 11.2877 13C9.38405 14.0569 8.09709 15.563 8.09709 15.563C7.37318 16.435 6.83695 17.0955 6.54202 18.126C5.7913 20.7683 7.72173 23.3577 8.04347 23.7805C9.65216 25.9207 12.3065 26.9512 17.5884 28.9858C20.0819 29.9634 21.9319 30.7561 23.6478 31.9451C24.5058 32.5528 25.9536 33.8211 26.9993 35.9614C28.2326 38.4451 28.179 40.7175 28.0985 41.6687C27.8572 44.9715 26.1681 47.1646 25.5246 47.9573Z" stroke="white"/>
<path d="M13.2181 10.5955C14.6391 10.252 16.5427 9.93497 18.8217 9.98782C21.6101 10.0407 23.8891 10.622 25.4442 11.1504C23.8355 15.6423 21.8782 22.6972 21.9319 31.5224C21.9587 40.9025 24.2109 48.3272 26.0072 52.8984C24.6398 53.4268 22.2268 54.1403 19.1703 54.061C16.1406 53.9553 13.7811 53.1098 12.4674 52.502C14.2638 48.0894 16.5696 40.9025 16.7572 31.813C16.9181 22.5122 14.8536 15.1138 13.2181 10.5955Z" fill="black"/>
<path fill-rule="evenodd" clip-rule="evenodd" d="M14.8268 11.3618C15.8725 11.0447 17.2667 10.7277 18.9022 10.7805C20.9399 10.8334 22.6022 11.3882 23.7283 11.8903C22.5485 16.1972 21.1275 22.9878 21.1543 31.4431C21.1812 40.4533 22.8167 47.5874 24.1304 51.9736C23.1384 52.4756 21.3688 53.189 19.1435 53.0834C16.9181 52.9777 15.229 52.1586 14.2638 51.5773C15.5775 47.3496 17.2399 40.4269 17.3739 31.6809C17.5348 22.7764 16.0333 15.6951 14.8268 11.3618Z" stroke="white"/>
</svg>
