<?xml version="1.0" encoding="UTF-8"?>
<svg width="66px" height="57px" viewBox="0 0 66 57" version="1.1" xmlns="http://www.w3.org/2000/svg" xmlns:xlink="http://www.w3.org/1999/xlink">
    <title>return</title>
    <g id="Page-1" stroke="none" stroke-width="1" fill="none" fill-rule="evenodd">
        <g id="Home" transform="translate(-1047.000000, -673.000000)" fill="#000000" fill-rule="nonzero">
            <g id="Преимущества" transform="translate(138.000000, 661.000000)">
                <g id="Возрат" transform="translate(803.000000, 0.000000)">
                    <g id="return" transform="translate(106.000000, 12.000000)">
                        <path d="M36.6421032,0 C22.8835651,0 11.3894552,9.880726 8.80623658,22.9403462 L3.41067666,16.1682521 L0,18.9086122 L8.73422296,29.87018 C9.15995425,30.4029499 9.79321685,30.6922881 10.4395613,30.6922881 C10.7692744,30.6922881 11.1033058,30.6176901 11.4156189,30.4621182 L24.5168898,23.8851265 L22.5626155,19.9630578 L12.9353983,24.7949668 C14.7215138,13.2545951 24.6544396,4.38457615 36.6421032,4.38457615 C49.8853692,4.38457615 60.661121,15.203579 60.661121,28.5 C60.661121,41.796421 49.8853692,52.6154239 36.6421032,52.6154239 L36.6421032,57 C52.2936976,57 65.028169,44.2144158 65.028169,28.5 C65.028169,12.7855842 52.2936976,0 36.6421032,0 Z" id="Path"></path>
                    </g>
                </g>
            </g>
        </g>
    </g>
</svg>